<svg width="343" height="96" viewBox="0 0 343 96" fill="none" xmlns="http://www.w3.org/2000/svg">
<path d="M106.4 35.6001H104.6V24.6001H106.4L110.1 29.6001L113.8 24.6001H115.6V35.6001H113.8V27.2001L110.6 31.4001H109.5L106.3 27.2001L106.4 35.6001Z" fill="white"/>
<path d="M120.1 35.6001H118.5V24.6001H120.3V32.7001L126.6 24.6001H128.2V35.6001H126.4V27.5001L120.1 35.6001Z" fill="white"/>
<path d="M132.8 35.6001H131V24.6001H132.8V29.0001H138.8V24.6001H140.6V35.6001H138.8V30.5001H132.8V35.6001Z" fill="white"/>
<path d="M145 35.6001H143.5V24.6001H145.3V32.7001L151.6 24.6001H153.2V35.6001H151.4V27.5001L145 35.6001Z" fill="white"/>
<path d="M161.5 35.7999C159.8 35.7999 158.3 35.2999 157.2 34.1999C156 33.0999 155.5 31.6999 155.5 30.0999C155.5 28.3999 156.1 27.0999 157.2 25.9999C158.4 24.8999 159.8 24.3999 161.5 24.3999C162.7 24.3999 163.7 24.6999 164.6 25.0999V26.7999C163.7 26.1999 162.7 25.8999 161.5 25.8999C160.3 25.8999 159.3 26.2999 158.5 27.0999C157.7 27.8999 157.3 28.7999 157.3 29.9999C157.3 31.1999 157.7 32.1999 158.5 32.8999C159.3 33.6999 160.3 34.0999 161.6 34.0999C162.9 34.0999 164 33.7999 164.9 33.0999V34.7999C163.8 35.4999 162.7 35.7999 161.5 35.7999Z" fill="white"/>
<path d="M166.3 26.2001V24.6001H175.7V26.2001H171.9V35.7001H170.1V26.2001H166.3Z" fill="white"/>
<path d="M186 35.6001H177.6V24.6001H185.8V26.2001H179.4V29.0001H184.6V30.6001H179.4V34.0001H186V35.6001Z" fill="white"/>
<path d="M189.7 35.6001H188V24.6001H193C194.2 24.6001 195.2 24.9001 195.8 25.5001C196.5 26.1001 196.9 26.9001 196.9 27.8001C196.9 28.7001 196.5 29.5001 195.8 30.2001C195.1 30.8001 194.2 31.1001 193 31.1001H189.8V35.6001H189.7ZM189.7 26.2001V29.5001H192.7C193.4 29.5001 193.9 29.3001 194.3 29.1001C194.7 28.8001 194.9 28.4001 194.9 27.9001C194.9 27.4001 194.7 27.0001 194.3 26.7001C193.9 26.4001 193.4 26.3001 192.7 26.3001L189.7 26.2001Z" fill="white"/>
<path d="M204.4 35.7999C202.7 35.7999 201.2 35.2999 200.1 34.1999C198.9 33.0999 198.4 31.6999 198.4 30.0999C198.4 28.3999 199 27.0999 200.1 25.9999C201.3 24.8999 202.7 24.3999 204.4 24.3999C205.6 24.3999 206.6 24.6999 207.5 25.0999V26.7999C206.6 26.1999 205.6 25.8999 204.4 25.8999C203.2 25.8999 202.2 26.2999 201.4 27.0999C200.6 27.8999 200.2 28.7999 200.2 29.9999C200.2 31.1999 200.6 32.1999 201.4 32.8999C202.2 33.6999 203.2 34.0999 204.5 34.0999C205.8 34.0999 206.9 33.7999 207.8 33.0999V34.7999C206.8 35.4999 205.7 35.7999 204.4 35.7999Z" fill="white"/>
<path d="M209.2 26.2001V24.6001H218.6V26.2001H214.8V35.7001H213V26.2001H209.2Z" fill="white"/>
<path d="M226.1 35.6001H220.5V24.6001H225.7C226.8 24.6001 227.5 24.9001 228.2 25.3001C228.8 25.8001 229.1 26.5001 229.1 27.3001C229.1 27.8001 228.9 28.3001 228.7 28.7001C228.4 29.1001 228.1 29.4001 227.6 29.5001C228.3 29.6001 228.9 30.0001 229.3 30.5001C229.7 31.0001 230 31.7001 230 32.5001C230 33.4001 229.6 34.2001 228.9 34.8001C228.3 35.3001 227.4 35.6001 226.1 35.6001ZM222.3 26.2001V29.0001H225.4C226 29.0001 226.5 28.9001 226.8 28.6001C227.1 28.3001 227.3 28.0001 227.3 27.5001C227.3 27.0001 227.1 26.7001 226.8 26.4001C226.5 26.1001 226 26.0001 225.4 26.0001H222.3V26.2001ZM222.3 30.5001V34.0001H225.8C226.5 34.0001 227.1 33.8001 227.4 33.5001C227.8 33.2001 228 32.8001 228 32.2001C228 31.7001 227.8 31.3001 227.4 30.9001C227 30.6001 226.5 30.5001 225.8 30.5001H222.3Z" fill="white"/>
<path d="M241.8 34.1999C240.7 35.2999 239.3 35.7999 237.6 35.7999C235.9 35.7999 234.5 35.2999 233.4 34.1999C232.3 33.0999 231.8 31.6999 231.8 30.0999C231.8 28.4999 232.3 27.0999 233.4 26.0999C234.5 24.9999 235.9 24.3999 237.6 24.3999C239.3 24.3999 240.7 24.9999 241.8 26.0999C242.9 27.1999 243.5 28.5999 243.5 30.0999C243.5 31.5999 242.9 33.0999 241.8 34.1999ZM234.8 32.9999C235.6 33.7999 236.5 34.1999 237.6 34.1999C238.7 34.1999 239.7 33.7999 240.4 32.9999C241.2 32.1999 241.6 31.1999 241.6 30.0999C241.6 28.8999 241.2 27.8999 240.4 27.1999C239.6 26.3999 238.7 25.9999 237.6 25.9999C236.5 25.9999 235.5 26.3999 234.8 27.1999C234 27.9999 233.6 28.8999 233.6 30.0999C233.6 31.2999 234 32.1999 234.8 32.9999Z" fill="white"/>
<path d="M252 35.6001H250.2V24.6001H252V29.0001H258V24.6001H259.8V35.6001H258V30.5001H252V35.6001Z" fill="white"/>
<path d="M263.5 35.6H261.6L266.6 24.5H268.3L273.3 35.6H271.4L270.1 32.9H264.7L263.5 35.6ZM267.5 26.7L265.4 31.3H269.6L267.5 26.7Z" fill="white"/>
<path d="M276.8 35.8C276.1 35.8 275.5 35.7 275.2 35.5V33.9C275.6 34.1 276 34.2 276.5 34.2C277 34.2 277.3 34.1 277.7 33.8C278 33.6 278.3 33.1 278.7 32.3L274.2 24.5H276.3L279.7 30.5L282.5 24.5H284.4L280.2 33.2C279.3 35 278.2 35.8 276.8 35.8Z" fill="white"/>
<path d="M287.9 35.6001H286.1V24.6001H287.9V29.1001L292.6 24.6001H294.9L289.6 29.6001L295.8 35.6001H293.4L288 30.3001V35.6001H287.9Z" fill="white"/>
<path d="M299 35.6001H297.5V24.6001H299.3V32.7001L305.6 24.6001H307.2V35.6001H305.4V27.5001L299 35.6001Z" fill="white"/>
<path d="M106.2 54.6997H104.7V43.6997H106.5V51.7997L112.8 43.6997H114.4V54.6997H112.6V46.5997L106.2 54.6997Z" fill="white"/>
<path d="M127.1 54.6997H121.5V43.6997H126.7C127.8 43.6997 128.5 43.9997 129.2 44.3997C129.8 44.8997 130.1 45.5997 130.1 46.3997C130.1 46.8997 129.9 47.3997 129.7 47.7997C129.5 48.1997 129.1 48.4997 128.6 48.5997C129.3 48.6997 129.9 49.0997 130.3 49.5997C130.7 50.0997 131 50.7997 131 51.5997C131 52.4997 130.6 53.2997 129.9 53.8997C129.2 54.3997 128.3 54.6997 127.1 54.6997ZM123.3 45.1997V47.9997H126.4C127 47.9997 127.5 47.8997 127.8 47.5997C128.1 47.2997 128.3 46.9997 128.3 46.4997C128.3 45.9997 128.1 45.6997 127.8 45.3997C127.5 45.0997 127 44.9997 126.4 44.9997H123.3V45.1997ZM123.3 49.5997V53.0997H126.8C127.5 53.0997 128.1 52.8997 128.4 52.5997C128.8 52.2997 129 51.8997 129 51.2997C129 50.7997 128.8 50.3997 128.4 49.9997C128 49.6997 127.5 49.5997 126.8 49.5997H123.3Z" fill="white"/>
<path d="M137.6 54.6997H133.2V43.6997H135V47.4997H137.6C138.9 47.4997 140 47.7997 140.8 48.4997C141.6 49.1997 142 49.9997 142 51.0997C142 52.1997 141.6 52.9997 140.8 53.6997C139.9 54.3997 138.9 54.6997 137.6 54.6997ZM135 49.0997V53.0997H137.5C138.3 53.0997 138.9 52.8997 139.4 52.5997C139.9 52.2997 140.1 51.7997 140.1 51.0997C140.1 50.3997 139.9 49.8997 139.4 49.5997C138.9 49.2997 138.3 49.0997 137.5 49.0997H135ZM145.2 54.6997H143.4V43.6997H145.2V54.6997Z" fill="white"/>
<path d="M153.5 54.9C151.8 54.9 150.3 54.4 149.2 53.3C148 52.2 147.5 50.8 147.5 49.2C147.5 47.5 148.1 46.2 149.2 45.1C150.4 44 151.8 43.5 153.5 43.5C154.7 43.5 155.7 43.8 156.6 44.2V45.9C155.7 45.3 154.7 45 153.5 45C152.3 45 151.3 45.4 150.5 46.2C149.7 47 149.3 47.9 149.3 49.1C149.3 50.3 149.7 51.3 150.5 52C151.3 52.8 152.3 53.2 153.6 53.2C154.9 53.2 156 52.9 156.9 52.2V53.9C155.9 54.6 154.8 54.9 153.5 54.9Z" fill="white"/>
<path d="M173.1 54.6997H159.1V43.6997H160.9V53.1997H165.2V43.6997H167V53.1997H171.3V43.6997H173.1V54.6997Z" fill="white"/>
<path d="M184.2 54.6997H175.8V43.6997H184V45.2997H177.6V47.9997H182.8V49.5997H177.6V53.0997H184.2V54.6997Z" fill="white"/>
<path d="M188 54.6997H186.2V43.6997H194.3V45.2997H188V54.6997Z" fill="white"/>
<path d="M205.4 53.3C204.3 54.4 202.9 54.9 201.2 54.9C199.5 54.9 198.1 54.4 197 53.3C195.9 52.2 195.4 50.8 195.4 49.2C195.4 47.6 195.9 46.2 197 45.2C198.1 44.1 199.5 43.5 201.2 43.5C202.9 43.5 204.3 44.1 205.4 45.2C206.5 46.3 207.1 47.7 207.1 49.2C207.1 50.7 206.5 52.2 205.4 53.3ZM198.3 52.1C199.1 52.9 200 53.3 201.1 53.3C202.2 53.3 203.2 52.9 203.9 52.1C204.7 51.3 205.1 50.3 205.1 49.2C205.1 48 204.7 47 203.9 46.3C203.1 45.5 202.2 45.1 201.1 45.1C200 45.1 199 45.5 198.3 46.3C197.5 47.1 197.1 48 197.1 49.2C197.2 50.4 197.5 51.3 198.3 52.1Z" fill="white"/>
<path d="M223.4 53.3C222.3 54.4 220.9 54.9 219.2 54.9C217.5 54.9 216.1 54.4 215 53.3C213.9 52.2 213.4 50.8 213.4 49.2C213.4 47.6 213.9 46.2 215 45.2C216.1 44.1 217.5 43.5 219.2 43.5C220.9 43.5 222.3 44.1 223.4 45.2C224.5 46.3 225.1 47.7 225.1 49.2C225.1 50.7 224.5 52.2 223.4 53.3ZM216.3 52.1C217.1 52.9 218 53.3 219.1 53.3C220.2 53.3 221.2 52.9 221.9 52.1C222.7 51.3 223.1 50.3 223.1 49.2C223.1 48 222.7 47 221.9 46.3C221.1 45.5 220.2 45.1 219.1 45.1C218 45.1 217 45.5 216.3 46.3C215.5 47.1 215.1 48 215.1 49.2C215.2 50.4 215.6 51.3 216.3 52.1Z" fill="white"/>
<path d="M232.2 54.6997H227.4V43.6997H235.5V45.2997H229.2V47.5997H232.3C233.6 47.5997 234.6 47.8997 235.4 48.5997C236.1 49.1997 236.6 50.0997 236.6 51.1997C236.6 52.2997 236.2 53.0997 235.4 53.7997C234.6 54.3997 233.5 54.6997 232.2 54.6997ZM229.1 49.1997V53.0997H232C232.8 53.0997 233.4 52.8997 233.9 52.5997C234.3 52.1997 234.6 51.7997 234.6 51.1997C234.6 50.5997 234.4 50.0997 233.9 49.6997C233.4 49.2997 232.8 49.1997 232 49.1997H229.1Z" fill="white"/>
<path d="M240.3 54.6997H238.5V43.6997H243.4C244.6 43.6997 245.6 43.9997 246.2 44.5997C246.9 45.1997 247.3 45.9997 247.3 46.8997C247.3 47.7997 246.9 48.5997 246.2 49.2997C245.5 49.8997 244.6 50.1997 243.4 50.1997H240.2V54.6997H240.3ZM240.3 45.1997V48.4997H243.3C244 48.4997 244.5 48.2997 244.9 48.0997C245.3 47.8997 245.5 47.3997 245.5 46.8997C245.5 46.3997 245.3 45.9997 244.9 45.6997C244.5 45.3997 244 45.2997 243.3 45.2997L240.3 45.1997Z" fill="white"/>
<path d="M249 54.7001H247.1L252.1 43.6001H253.8L258.8 54.7001H257L255.7 52.0001H250.3L249 54.7001ZM253 45.7001L250.9 50.3001H255.1L253 45.7001Z" fill="white"/>
<path d="M264.3 54.8999C262.7 54.8999 261.4 54.5999 260.3 53.9999V52.2999C260.8 52.5999 261.4 52.8999 262.1 52.9999C262.8 53.1999 263.4 53.2999 264.1 53.2999C265 53.2999 265.8 53.0999 266.4 52.7999C267 52.3999 267.2 51.9999 267.2 51.3999C267.2 50.8999 266.9 50.4999 266.4 50.0999C265.9 49.7999 265.2 49.5999 264.3 49.5999H263V47.9999H264.6C265.3 47.9999 265.9 47.7999 266.2 47.5999C266.6 47.2999 266.8 46.9999 266.8 46.4999C266.8 45.9999 266.6 45.6999 266.1 45.3999C265.7 45.0999 265 44.9999 264.3 44.9999C263.1 44.9999 261.9 45.2999 260.8 45.7999V44.1999C261.9 43.5999 263.1 43.3999 264.4 43.3999C265.7 43.3999 266.7 43.6999 267.4 44.1999C268.2 44.6999 268.6 45.4999 268.6 46.3999C268.6 46.9999 268.4 47.4999 268 47.8999C267.6 48.2999 267.2 48.5999 266.8 48.6999C267.4 48.8999 267.9 49.1999 268.4 49.6999C268.9 50.1999 269.1 50.7999 269.1 51.4999C269.1 52.4999 268.7 53.2999 267.8 53.9999C266.8 54.5999 265.7 54.8999 264.3 54.8999Z" fill="white"/>
<path d="M280.8 53.3C279.7 54.4 278.3 54.9 276.6 54.9C274.9 54.9 273.5 54.4 272.4 53.3C271.3 52.2 270.8 50.8 270.8 49.2C270.8 47.6 271.3 46.2 272.4 45.2C273.5 44.1 274.9 43.5 276.6 43.5C278.3 43.5 279.7 44.1 280.8 45.2C281.9 46.3 282.5 47.7 282.5 49.2C282.5 50.7 281.9 52.2 280.8 53.3ZM273.7 52.1C274.5 52.9 275.4 53.3 276.5 53.3C277.6 53.3 278.6 52.9 279.3 52.1C280.1 51.3 280.5 50.3 280.5 49.2C280.5 48 280.1 47 279.3 46.3C278.5 45.6 277.6 45.1 276.5 45.1C275.4 45.1 274.4 45.5 273.7 46.3C272.9 47.1 272.5 48 272.5 49.2C272.6 50.4 273 51.3 273.7 52.1Z" fill="white"/>
<path d="M290.4 54.6997H284.8V43.6997H290C291.1 43.6997 291.8 43.9997 292.5 44.3997C293.1 44.8997 293.4 45.5997 293.4 46.3997C293.4 46.8997 293.2 47.3997 293 47.7997C292.7 48.1997 292.4 48.4997 291.9 48.5997C292.6 48.6997 293.2 49.0997 293.6 49.5997C294 50.0997 294.3 50.7997 294.3 51.5997C294.3 52.4997 293.9 53.2997 293.2 53.8997C292.5 54.3997 291.5 54.6997 290.4 54.6997ZM286.5 45.1997V47.9997H289.6C290.2 47.9997 290.7 47.8997 291 47.5997C291.3 47.2997 291.5 46.9997 291.5 46.4997C291.5 45.9997 291.3 45.6997 291 45.3997C290.7 45.0997 290.2 44.9997 289.6 44.9997H286.5V45.1997ZM286.5 49.5997V53.0997H290C290.7 53.0997 291.3 52.8997 291.6 52.5997C292 52.2997 292.2 51.8997 292.2 51.2997C292.2 50.7997 292 50.3997 291.6 49.9997C291.2 49.6997 290.7 49.5997 290 49.5997H286.5Z" fill="white"/>
<path d="M297.2 54.7001H295.3L300.3 43.6001H302L307 54.7001H305.1L303.8 52.0001H298.4L297.2 54.7001ZM301.2 45.7001L299.1 50.3001H303.3L301.2 45.7001Z" fill="white"/>
<path d="M310.7 54.7001H308.9V43.7001H310.7V48.0001H316.7V43.6001H318.5V54.6001H316.7V49.5001H310.7V54.7001Z" fill="white"/>
<path d="M322.8 54.6997H321.3V43.6997H323.1V51.7997L329.4 43.6997H331V54.6997H329.2V46.5997L322.8 54.6997Z" fill="white"/>
<path d="M335 54.6998H332.8L336.5 49.8998C335.7 49.6998 335.1 49.3998 334.6 48.7998C334.1 48.2998 333.9 47.5998 333.9 46.8998C333.9 45.9998 334.2 45.1998 334.9 44.5998C335.6 43.9998 336.5 43.7998 337.7 43.7998H342.9V54.7998H341.1V49.9998H338.4L335 54.6998ZM337.8 48.4998H341.2V45.1998H337.8C337.2 45.1998 336.6 45.3998 336.3 45.5998C335.9 45.8998 335.8 46.2998 335.8 46.7998C335.8 47.2998 336 47.6998 336.3 47.9998C336.7 48.2998 337.2 48.4998 337.8 48.4998Z" fill="white"/>
<path d="M106.4 73.7998H104.6V62.7998H109.6C110.8 62.7998 111.8 63.0998 112.4 63.6998C113.1 64.2998 113.5 65.0998 113.5 65.9998C113.5 66.8998 113.1 67.6998 112.4 68.3998C111.7 68.9998 110.8 69.2998 109.6 69.2998H106.4V73.7998ZM106.4 64.2998V67.5998H109.4C110.1 67.5998 110.6 67.3998 111 67.1998C111.4 66.8998 111.6 66.4998 111.6 65.9998C111.6 65.4998 111.4 65.0998 111 64.7998C110.6 64.4998 110.1 64.3998 109.4 64.3998L106.4 64.2998Z" fill="white"/>
<path d="M125.1 72.3C124 73.4 122.6 73.9 120.9 73.9C119.2 73.9 117.8 73.4 116.7 72.3C115.6 71.2 115.1 69.8 115.1 68.2C115.1 66.6 115.6 65.2 116.7 64.2C117.8 63.1 119.2 62.5 120.9 62.5C122.6 62.5 124 63.1 125.1 64.2C126.2 65.3 126.8 66.7 126.8 68.2C126.8 69.8 126.2 71.2 125.1 72.3ZM118.1 71.1C118.9 71.9 119.8 72.3 120.9 72.3C122 72.3 123 71.9 123.7 71.1C124.5 70.3 124.9 69.3 124.9 68.2C124.9 67.1 124.5 66 123.7 65.3C122.9 64.5 122 64.1 120.9 64.1C119.8 64.1 118.8 64.5 118.1 65.3C117.3 66.1 116.9 67 116.9 68.2C116.9 69.4 117.3 70.4 118.1 71.1Z" fill="white"/>
<path d="M134.8 74.0001C133.1 74.0001 131.6 73.5001 130.5 72.4001C129.3 71.3001 128.8 69.9001 128.8 68.3001C128.8 66.6001 129.4 65.3001 130.5 64.2001C131.7 63.1001 133.1 62.6001 134.8 62.6001C136 62.6001 137 62.9001 137.9 63.3001V65.0001C137 64.4001 136 64.1001 134.8 64.1001C133.6 64.1001 132.6 64.5001 131.8 65.3001C131 66.1001 130.6 67.0001 130.6 68.2001C130.6 69.4001 131 70.4001 131.8 71.1001C132.6 71.9001 133.6 72.3001 134.9 72.3001C136.2 72.3001 137.3 72.0001 138.2 71.3001V73.0001C137.2 73.7001 136.1 74.0001 134.8 74.0001Z" fill="white"/>
<path d="M145.7 74.0001C144 74.0001 142.5 73.5001 141.4 72.4001C140.2 71.3001 139.7 69.9001 139.7 68.3001C139.7 66.6001 140.3 65.3001 141.4 64.2001C142.6 63.1001 144 62.6001 145.7 62.6001C146.9 62.6001 147.9 62.9001 148.8 63.3001V65.0001C147.9 64.4001 146.9 64.1001 145.7 64.1001C144.5 64.1001 143.5 64.5001 142.7 65.3001C141.9 66.1001 141.5 67.0001 141.5 68.2001C141.5 69.4001 141.9 70.4001 142.7 71.1001C143.5 71.9001 144.5 72.3001 145.8 72.3001C147.1 72.3001 148.2 72.0001 149.1 71.3001V73.0001C148 73.7001 146.9 74.0001 145.7 74.0001Z" fill="white"/>
<path d="M152.7 73.7998H151.2V62.7998H153V70.8998L159.3 62.7998H160.9V73.7998H159.1V65.6998L152.7 73.7998Z" fill="white"/>
<path d="M165.2 73.7999H163.7V62.7999H165.5V70.8999L171.8 62.7999H173.4V73.7999H171.6V65.6999L165.2 73.7999ZM168.5 61.9999C167.7 61.9999 166.9 61.6999 166.4 61.2999C165.9 60.7999 165.6 60.1999 165.6 59.3999H167.1C167.1 59.7999 167.2 60.0999 167.5 60.2999C167.8 60.5999 168.1 60.6999 168.5 60.6999C168.9 60.6999 169.3 60.5999 169.5 60.2999C169.8 59.9999 169.9 59.6999 169.9 59.3999H171.4C171.4 60.1999 171.1 60.7999 170.6 61.2999C170.1 61.7999 169.4 61.9999 168.5 61.9999Z" fill="white"/>
<path d="M181.7 74.0001C180 74.0001 178.5 73.5001 177.4 72.4001C176.2 71.3001 175.7 69.9001 175.7 68.3001C175.7 66.6001 176.3 65.3001 177.4 64.2001C178.6 63.1001 180 62.6001 181.7 62.6001C182.9 62.6001 183.9 62.9001 184.8 63.3001V65.0001C183.9 64.4001 182.9 64.1001 181.7 64.1001C180.5 64.1001 179.5 64.5001 178.7 65.3001C177.9 66.1001 177.5 67.0001 177.5 68.2001C177.5 69.4001 177.9 70.4001 178.7 71.1001C179.5 71.9001 180.5 72.3001 181.8 72.3001C183.1 72.3001 184.2 72.0001 185.1 71.3001V73.0001C184.1 73.7001 183 74.0001 181.7 74.0001Z" fill="white"/>
<path d="M189.1 73.7998H187.3V62.7998H189.1V67.2998L193.8 62.7998H196.1L190.8 67.7998L197 73.7998H194.5L189.1 68.4998V73.7998Z" fill="white"/>
<path d="M207.1 72.3C206 73.4 204.6 73.9 202.9 73.9C201.2 73.9 199.8 73.4 198.7 72.3C197.6 71.2 197.1 69.8 197.1 68.2C197.1 66.6 197.6 65.2 198.7 64.2C199.8 63.1 201.2 62.5 202.9 62.5C204.6 62.5 206 63.1 207.1 64.2C208.2 65.3 208.8 66.7 208.8 68.2C208.7 69.8 208.2 71.2 207.1 72.3ZM200 71.1C200.8 71.9 201.7 72.3 202.8 72.3C203.9 72.3 204.9 71.9 205.6 71.1C206.4 70.3 206.8 69.3 206.8 68.2C206.8 67.1 206.4 66 205.6 65.3C204.8 64.5 203.9 64.1 202.8 64.1C201.7 64.1 200.7 64.5 200 65.3C199.2 66.1 198.8 67 198.8 68.2C198.9 69.4 199.2 70.4 200 71.1Z" fill="white"/>
<path d="M212.6 73.7999H211V62.7999H212.8V70.8999L219.1 62.7999H220.7V73.7999H218.9V65.6999L212.6 73.7999ZM215.8 61.9999C215 61.9999 214.2 61.6999 213.7 61.2999C213.2 60.7999 212.9 60.1999 212.9 59.3999H214.4C214.4 59.7999 214.5 60.0999 214.8 60.2999C215.1 60.5999 215.4 60.6999 215.8 60.6999C216.2 60.6999 216.6 60.5999 216.8 60.2999C217.1 59.9999 217.2 59.6999 217.2 59.3999H218.7C218.7 60.1999 218.4 60.7999 217.9 61.2999C217.3 61.7999 216.7 61.9999 215.8 61.9999Z" fill="white"/>
<path d="M234.8 74.0998H233V72.8998C231.2 72.7998 229.8 72.3998 228.8 71.4998C227.9 70.5998 227.4 69.4998 227.4 68.1998C227.4 67.5998 227.5 66.9998 227.8 66.4998C228 65.8998 228.4 65.3998 228.8 64.9998C229.2 64.4998 229.9 64.1998 230.6 63.8998C231.3 63.5998 232.2 63.4998 233.1 63.3998V62.2998H234.9V63.3998C235.8 63.3998 236.6 63.5998 237.4 63.7998C238.1 64.0998 238.7 64.3998 239.2 64.8998C239.7 65.3998 240 65.7998 240.2 66.3998C240.4 66.9998 240.6 67.5998 240.6 68.0998C240.6 68.5998 240.5 69.2998 240.2 69.7998C239.9 70.2998 239.6 70.8998 239.2 71.2998C238.7 71.7998 238.1 72.0998 237.4 72.3998C236.7 72.6998 235.8 72.7998 234.9 72.7998L234.8 74.0998ZM233 71.3998V64.8998C231.8 64.8998 230.8 65.1998 230.2 65.7998C229.6 66.3998 229.3 67.1998 229.3 68.0998C229.3 68.9998 229.6 69.7998 230.2 70.3998C230.8 70.9998 231.8 71.2998 233 71.3998ZM234.8 64.8998V71.3998C236.1 71.3998 237 71.0998 237.6 70.4998C238.2 69.8998 238.5 69.0998 238.5 68.1998C238.5 67.2998 238.2 66.4998 237.6 65.8998C237 65.1998 236 64.8998 234.8 64.8998Z" fill="white"/>
<path d="M250.9 73.7998H242.5V62.7998H250.7V64.3998H244.3V67.1998H249.5V68.7998H244.3V72.2998H250.9V73.7998Z" fill="white"/>
<path d="M254.1 76.0998H252.4V72.1998H253.5C254.1 71.2998 254.6 70.2998 254.8 69.0998C255.1 67.8998 255.2 66.2998 255.2 64.2998V62.7998H262.8V72.2998H264.4V76.1998H262.7V73.7998H254L254.1 76.0998ZM255.4 72.0998H261V64.1998H256.9C256.9 65.9998 256.8 67.5998 256.5 68.7998C256.4 70.1998 256 71.2998 255.4 72.0998Z" fill="white"/>
<path d="M274.7 73.7998H266.3V62.7998H274.5V64.3998H268.1V67.1998H273.3V68.7998H268.1V72.2998H274.7V73.7998Z" fill="white"/>
<path d="M278.5 73.7998H276.7V62.7998H281.7C282.9 62.7998 283.9 63.0998 284.5 63.6998C285.2 64.2998 285.6 65.0998 285.6 65.9998C285.6 66.8998 285.2 67.6998 284.5 68.3998C283.8 68.9998 282.9 69.2998 281.7 69.2998H278.5V73.7998ZM278.5 64.2998V67.5998H281.5C282.2 67.5998 282.7 67.3998 283.1 67.1998C283.5 66.8998 283.7 66.4998 283.7 65.9998C283.7 65.4998 283.5 65.0998 283.1 64.7998C282.7 64.4998 282.2 64.3998 281.5 64.3998L278.5 64.2998Z" fill="white"/>
<path d="M287.2 73.7997H285.3L290.3 62.6997H292L297 73.7997H295.1L293.8 71.0997H288.4L287.2 73.7997ZM291.2 64.7997L289.1 69.3997H293.3L291.2 64.7997Z" fill="white"/>
<path d="M309.8 76.0997H308.1V73.6997H298.9V62.6997H300.7V72.1997H306.3V62.6997H308.1V72.1997H309.7V76.0997H309.8Z" fill="white"/>
<path d="M313.2 73.7998H311.7V62.7998H313.5V70.8998L319.8 62.7998H321.4V73.7998H319.6V65.6998L313.2 73.7998Z" fill="white"/>
<path d="M325.7 73.7998H324.2V62.7998H326V70.8998L332.3 62.7998H333.9V73.7998H332.1V65.6998L325.7 73.7998Z" fill="white"/>
<path d="M67.5 71.6001C67.2 71.6001 67 71.8001 67 72.1001C67 72.4001 67.2 72.6001 67.5 72.6001C67.8 72.6001 68 72.4001 68 72.1001C68 71.9001 67.8 71.6001 67.5 71.6001Z" fill="white"/>
<path d="M69.2 76.5C69.2 76.8 69.4 77 69.7 77C70 77 70.2 76.8 70.2 76.5C70.2 76.2 70 76 69.7 76C69.4 76 69.2 76.2 69.2 76.5Z" fill="white"/>
<path d="M67.5 76C67.2 76 67 76.2 67 76.5C67 76.8 67.2 77 67.5 77C67.8 77 68 76.8 68 76.5C68 76.2 67.8 76 67.5 76Z" fill="white"/>
<path d="M71.4 76.5C71.4 76.8 71.6 77 71.9 77C72.2 77 72.4 76.8 72.4 76.5C72.4 76.2 72.2 76 71.9 76C71.6 76 71.4 76.2 71.4 76.5Z" fill="white"/>
<path d="M66.8 66.7002L66.9 68.0002L65.8 67.9002V69.3002L66.9 69.1002L66.8 70.4002H68.2L68.1 69.1002L69.2 69.3002V67.9002L68.1 68.0002L68.2 66.7002H66.8Z" fill="white"/>
<path d="M68.4 71.2002V75.7002H72.7C72.4 73.4002 70.6 71.6002 68.4 71.2002Z" fill="white"/>
<path d="M67.5 73.7998C67.2 73.7998 67 73.9998 67 74.2998C67 74.5998 67.2 74.7998 67.5 74.7998C67.8 74.7998 68 74.5998 68 74.2998C68 73.9998 67.8 73.7998 67.5 73.7998Z" fill="white"/>
<path d="M69.3 79.5C69.2 79.5 68.8 80.6 69.2 81.4C69.4 81.8 69.8 82 70.2 81.9C70.6 81.8 70.7 81.4 70.7 81.2C70.6 80.3 69.9 79.5 69.3 79.5Z" fill="white"/>
<path d="M65.7 79.5C65.1 79.5 64.4 80.3 64.4 81.2C64.4 81.5 64.5 81.8 64.9 81.9C65.3 82 65.7 81.8 65.9 81.4C66.1 80.6 65.8 79.5 65.7 79.5Z" fill="white"/>
<path d="M67.5 78.8999C67.1 78.8999 65.9 81.1999 66.8 82.2999C67 82.4999 67.2 82.5999 67.5 82.5999C67.8 82.5999 68.1 82.4999 68.2 82.2999C69 81.1999 67.9 78.8999 67.5 78.8999Z" fill="white"/>
<path d="M62.2 76.4999C62.2 75.9999 62.3 75.5999 62.3 75.5999H66.6V75.1999V71.9999V71.0999C64.5 71.4999 62.8 73.0999 62.3 75.1999C62.2 75.3999 61.8 75.4999 61.5 75.3999C59.9 75.1999 56.7 74.5999 56.7 73.8999C56.7 72.8999 57.4 72.4999 58 72.4999C58.9 72.4999 59.9 72.9999 60.7 71.7999C57.8 71.8999 60 67.6999 57.6 66.8999C57.7 67.9999 57.6 69.8999 57.2 70.8999C57.2 70.8999 56.3 69.9999 55.4 69.5999C55.5 70.3999 55.3 71.9999 55 72.7999C55 72.7999 54 71.7999 52.9 71.4999C53.9 72.8999 53.9 74.9999 53.6 76.1999C53.5 76.5999 53.8 76.9999 54.5 76.9999C55.7 76.8999 59.7 77.0999 61.4 77.7999C61.9 77.9999 62.4 78.2999 62.6 78.6999C62.8 79.1999 63.2 79.9999 63.8 80.3999C64.1 79.4999 65.1 78.4999 65.8 78.5999C66 78.5999 66.2 78.9999 66.3 79.2999C66.4 78.9999 66.9 78.0999 67.4 78.0999C67.9 78.0999 68.4 78.7999 68.6 79.3999C68.7 78.9999 68.9 78.5999 69.1 78.5999C69.8 78.5999 70.7 79.1999 71 80.2999C71.3 79.9999 72.5 78.3999 72.6 77.2999H62.2C62.2 77.3999 62.2 76.9999 62.2 76.4999Z" fill="white"/>
<path d="M64.8 76.5C64.8 76.8 65 77 65.3 77C65.6 77 65.8 76.8 65.8 76.5C65.8 76.2 65.6 76 65.3 76C65 76 64.8 76.2 64.8 76.5Z" fill="white"/>
<path d="M62.7 76.5C62.7 76.8 62.9 77 63.2 77C63.5 77 63.7 76.8 63.7 76.5C63.7 76.2 63.5 76 63.2 76C62.9 76 62.7 76.2 62.7 76.5Z" fill="white"/>
<path d="M21.3 78.7002C21.1 78.9002 20.7 80.0002 20.9 80.7002C21 81.0002 21.1 81.1002 21.4 81.1002C21.7 81.1002 21.8 80.9002 21.9 80.6002C22 79.9002 21.5 78.8002 21.3 78.7002Z" fill="white"/>
<path d="M25 81.8001C24.8 82.1001 24.5 82.2001 24.4 82.3001C24.5 82.4001 24.8 82.6001 25.1 82.6001C25.3 82.6001 25.5 82.5001 25.6 82.4001C25.9 81.8001 25.6 81.3001 25.5 81.1001C25.4 81.3001 25.3 81.6001 25 81.8001Z" fill="white"/>
<path d="M23.6 80.4002C24 80.0002 24.1 79.7002 24 79.5002C23.9 79.2002 23 78.3002 22 77.2002C22 77.4002 21.9 77.6002 21.9 77.8002C22.6 78.8002 22.9 79.8002 22.7 80.7002C22.8 80.8002 22.8 80.8002 22.9 80.8002C23.1 81.0002 23.4 80.7002 23.6 80.4002Z" fill="white"/>
<path d="M25 80.5001C25 80.3001 25 80.2001 24.9 80.1001H24.8C24.7 80.1001 24.6 80.3001 24.5 80.4001C24.4 80.5001 24.3 80.7001 24.1 80.9001C23.9 81.1001 23.8 81.2001 23.6 81.4001C23.4 81.5001 23.3 81.7001 23.3 81.8001C23.3 81.8001 23.3 81.8001 23.3 81.9001C23.4 82.0001 23.4 82.0001 23.5 82.0001C23.6 82.0001 23.9 81.9001 24.4 81.4001C24.9 80.9001 25 80.7001 25 80.5001Z" fill="white"/>
<path d="M18.4 75.1999C18.4 75.1999 18.3 75.2999 18.2 75.4999C18.4 75.4999 18.7 75.4999 18.9 75.5999C18.9 75.3999 18.9 75.0999 18.9 74.8999C18.7 74.8999 18.5 75.0999 18.4 75.1999Z" fill="white"/>
<path d="M21.1 75.5C21.1 75.5 23.2 77.3 23.9 78C24.1 78.2 24.3 78.2 24.5 78.1C24.6 78 24.8 78 25 77.9C27.1 77.2 30.5 77.1 31.7 77.1C32.5 77.1 32.7 76.7 32.6 76.3C32.4 75.1 32.3 73 33.3 71.6C32.2 72 31.2 72.9 31.2 72.9C30.8 72.2 30.7 70.5 30.8 69.7C29.8 70 29 71 29 71C28.6 70 28.5 68.1 28.6 67C26.2 67.8 28.4 72.1 25.5 71.9C26.3 73.1 27.3 72.6 28.2 72.6C28.8 72.6 29.6 73 29.5 74C29.4 74.7 25.5 75.5 23.9 75.5C22.8 75.5 22 75.2 21.5 74.4C21.2 74 21 73.9 20.7 73.9C20.3 74 19.9 74.3 19.9 75.3C19.9 75.9 20.2 77.3 20.9 77.3C21.3 77.4 21.3 76.2 21.1 75.5Z" fill="white"/>
<path d="M17.1 74.8998C17.2 74.8998 17.3 74.8998 17.4 74.8998C17.1 75.2998 17.1 75.5998 17.2 75.6998C17.4 75.8998 17.5 75.4998 18 74.9998C18.5 74.4998 18.8 74.2998 18.7 74.0998C18.6 73.9998 18.3 73.9998 17.9 74.2998C17.9 74.1998 18 74.0998 17.9 73.9998C17.7 73.4998 17 72.8998 16.5 72.8998C16.4 72.8998 16.4 72.8998 16.3 72.8998C16.5 72.5998 16.4 72.3998 16.3 72.1998C16.2 72.0998 16.1 72.1998 15.9 72.3998C15.9 72.2998 15.9 72.0998 15.8 71.8998C15.2 70.8998 11.8 67.6998 11 67.3998C10.5 67.1998 10.4 67.4998 10.4 67.4998C10.4 67.4998 10.1 67.6998 10.3 68.0998C10.6 68.8998 13.9 72.1998 14.8 72.7998C15 72.8998 15.2 72.9998 15.3 72.8998C15.1 73.0998 15 73.0998 15.2 73.2998C15.3 73.3998 15.5 73.4998 15.8 73.2998C15.8 73.3998 15.8 73.3998 15.8 73.4998C16 73.8998 16.6 74.6998 17.1 74.8998Z" fill="white"/>
<path d="M19.5 77.2999C19.5 76.9999 18.9 76.3999 18.1 76.3999C17 76.3999 16.5 77.0999 16.5 77.4999C16.5 78.1999 17.2 78.2999 17.4 78.2999C18.1 78.2999 19.4 77.4999 19.5 77.2999Z" fill="white"/>
<path d="M18.5 78.9999C18.2 79.3999 18.1 79.7999 18.2 80.0999C18.3 80.4999 18.7 80.6999 19.1 80.6999C19.5 80.6999 19.9 80.4999 20.1 80.1999C20.5 79.4999 20.5 77.9999 20.4 77.8999C20 77.8999 19 78.2999 18.5 78.9999Z" fill="white"/>
<path d="M8.70003 63.3998C8.40003 63.0998 7.70003 63.5998 7.30003 63.2998C7.50003 62.2998 8.20003 63.2998 8.80003 62.6998C9.10003 62.3998 8.90003 61.9998 8.80003 61.8998C8.50003 62.1998 8.10003 62.0998 8.00003 61.8998C8.70003 60.0998 7.30003 58.1998 5.90003 58.3998C6.20003 58.7998 6.30003 60.0998 6.10003 60.3998C6.60003 60.7998 6.30003 61.6998 5.70003 61.3998C5.30003 61.1998 4.60003 60.1998 5.40003 59.5998C5.40003 59.2998 4.90003 59.2998 4.50003 59.8998C4.80003 58.7998 2.70003 59.0998 2.30003 59.3998C2.10003 59.8998 1.80003 61.9998 2.90003 61.5998C2.30003 62.0998 2.40003 62.5998 2.60003 62.5998C3.30003 61.7998 4.20003 62.3998 4.40003 62.7998C4.70003 63.3998 3.80003 63.7998 3.40003 63.2998C3.10003 63.3998 1.80003 63.3998 1.50003 63.0998C1.30003 64.4998 3.30003 65.9998 5.00003 65.1998C5.20003 65.1998 5.30003 65.6998 5.00003 65.9998C5.10003 66.1998 5.60003 66.2998 5.80003 65.9998C6.50003 65.2998 5.50003 64.5998 6.40003 64.3998C6.60003 64.7998 6.20003 65.4998 6.50003 65.7998C7.00003 66.2998 7.60003 65.2998 8.30003 65.2998C8.30003 64.4998 9.20003 63.8998 8.70003 63.3998ZM3.50003 61.0998C3.50003 61.0998 3.20003 60.8998 3.60003 60.3998C4.00003 59.9998 4.20003 60.2998 4.20003 60.2998C4.20003 60.2998 4.60003 61.0998 4.70003 61.4998C4.30003 61.4998 3.50003 61.0998 3.50003 61.0998ZM6.70003 63.5998C6.50003 63.5998 6.00003 64.0998 5.80003 63.7998L4.70003 62.6998L5.30003 62.0998L5.90003 61.4998L7.00003 62.5998C7.10003 62.8998 6.70003 63.3998 6.70003 63.5998Z" fill="white"/>
<path d="M8.99998 65.3999C8.89998 65.3999 8.79998 65.3999 8.69998 65.4999C8.59998 65.5999 8.59998 65.7999 8.59998 65.9999C8.59998 66.1999 8.79998 66.3999 8.99998 66.5999C9.09998 66.8999 9.39998 66.9999 9.59998 66.9999C9.69998 66.9999 9.79997 66.9999 9.89997 66.8999C10.1 66.6999 9.99997 66.0999 9.69998 65.7999C9.49998 65.5999 9.19998 65.3999 8.99998 65.3999Z" fill="white"/>
<path d="M5.80001 62.1001L5.50001 62.4001L5.20001 62.7001C5.20001 62.7001 5.80001 63.5001 6.30001 63.2001C6.60001 62.7001 5.80001 62.1001 5.80001 62.1001Z" fill="white"/>
<path d="M64.2 59.0998C64.2 59.2998 63.4 59.6998 62.8 58.5998C62.2 58.4998 61.6 58.2998 61.2 58.0998C61.9 59.4998 62.5 60.6998 63.5 61.2998C65 62.1998 67.3 61.9998 68 60.9998C66.7 60.2998 65.2 58.4998 64.4 56.7998C64.2 57.1998 63.9 57.8998 63.7 58.3998C63.8 58.5998 64 58.8998 64.2 59.0998Z" fill="white"/>
<path d="M78.1 37.1998C79.7 36.4998 82 34.8998 83.1 33.8998C83.2 34.0998 83.6 34.9998 82.4 35.9998C81.5 36.6998 79.7 37.5998 78.4 38.0998C77.8 38.9998 76.6 39.9998 75 41.0998C78.2 40.5998 82 39.2998 83.9 37.4998C87.4 33.9998 85.6 29.7998 85.1 28.7998C82.8 31.6998 78.4 34.6998 74.3 36.2998C75.7 36.4998 77.1 36.7998 78.1 37.1998Z" fill="white"/>
<path d="M75.5 30.8001C77.6 29.1001 79.8 25.7001 80.2 24.5001C80.7 24.8001 80.9 25.8001 80.3 26.9001C79.2 28.8001 77.2 30.5001 75.5 31.9001C75.4 33.1001 74.9 34.6001 74.3 35.7001C76.8 34.0001 79.7 31.5001 81 29.8001C82.7 27.6001 83.4 25.4001 83.1 23.2001C83.2 20.7001 81.4 18.2001 80.7 17.6001C80.2 20.3001 77.5 24.9001 75.1 27.5001C75.3 28.4001 75.5 29.7001 75.5 30.8001Z" fill="white"/>
<path d="M73.9 46.6001C74.4 47.2001 74.9 47.9001 75.3 48.5001C77.2 48.9001 79.5 48.8001 79.5 48.8001C79.5 48.8001 79.4 49.8001 78.1 49.9001C77.5 49.9001 75.7 49.6001 75 49.4001C74.7 49.5001 73.3 49.9001 71.9 50.1001C73.9 50.8001 76.8 51.5001 78.6 51.5001C78.8 51.5001 78.9 51.5001 79.1 51.5001C82 51.2001 83.5 48.5001 83.6 47.0001C82.7 47.2001 81.2 47.3001 79.7 47.3001C78.3 47.3001 75.8 47.2001 73.9 46.6001Z" fill="white"/>
<path d="M86 39C83.4 40.4 78.8 41.8 75.1 41.8C76 42.4 76.9 43 77.5 43.6C79 43.5 81.1 43 82.3 42.6C82.3 42.8 82.3 43.8 80.9 44.2C79.9 44.5 78.5 44.5 77.4 44.5C76.5 45.1 75.2 45.6 74.1 46C75.1 46.1 76.4 46.2 77.5 46.2C79.4 46.2 81.2 46 82.3 45.6C83.3 45.3 86.6 43.9 86 39Z" fill="white"/>
<path d="M72 52.7998C73.1 53.2998 74.3 53.6998 75.3 53.7998C75.3 53.7998 75.1 54.7998 73.6 54.5998C72.7 54.4998 71.7 53.7998 71.5 53.6998C70.8 53.7998 69.4 53.7998 68.9 53.6998C70.6 54.8998 73.2 56.2998 75.4 56.4998C75.5 56.4998 75.6 56.4998 75.7 56.4998C78 56.4998 79.8 54.1998 80.3 53.0998C78 53.0998 74 52.0998 71.6 50.7998C71.7 51.1998 71.9 51.9998 72 52.7998Z" fill="white"/>
<path d="M68 55.9001C68.6 56.6001 69.6 57.0001 69.6 57.0001C69.6 57.0001 69.3 57.5001 68.7 57.5001C68.5 57.5001 68.3 57.4001 68.1 57.3001C67.7 57.1001 67.1 56.4001 67.1 56.4001C66.3 56.3001 65.6 56.2001 64.9 56.0001C66.1 57.5001 68.1 59.4001 70.3 59.9001C70.6 60.0001 70.9 60.0001 71.3 60.0001C73.2 60.0001 74.8 58.6001 75.2 57.7001C73 57.4001 69.8 55.7001 68.2 54.1001C68.2 54.7001 68.1 55.4001 68 55.9001Z" fill="white"/>
<path d="M53.7 80.3998C54.8 80.3998 55.5 79.9998 56 78.8998C54.5 79.5998 52.9 79.1998 49.9 78.2998C49.9 78.2998 48.8 78.7998 48.1 78.8998C49.9 79.3998 52.5 80.2998 52.9 81.2998C53.1 82.0998 52.6 82.2998 52.6 82.2998C51.6 81.0998 50.4 80.3998 47.8 79.5998C47.8 80.0998 47.7 80.3998 47.7 80.3998C47.7 80.3998 47.2 80.4998 46 80.2998C47 81.0998 49.4 83.1998 49.7 85.3998C49.9 86.8998 48.8 86.9998 48.8 86.9998C48.7 84.6998 47.7 83.2998 45.5 80.9998C45.5 80.9998 45.1 81.4998 44.7 81.7998C44.7 81.7998 43.9 81.6998 43.3 81.1998C43.6 84.1998 43.7 91.3998 43.5 92.4998C43.4 93.2998 42.9 93.6998 42.9 93.6998C42.9 93.6998 42.4 93.3998 42.3 92.4998C42.1 91.2998 42.3 84.0998 42.5 81.1998C41.8 81.5998 41.1 81.7998 41.1 81.7998C40.6 81.4998 40.3 80.9998 40.3 80.9998C38.2 83.2998 37.2 84.7998 37 86.9998C37 86.9998 36 86.8998 36.1 85.3998C36.4 83.1998 38.8 81.0998 39.8 80.2998C38.7 80.4998 38.1 80.3998 38.1 80.3998C38.1 80.3998 38 80.0998 38 79.5998C35.4 80.3998 34.3 81.0998 33.2 82.2998C33.2 82.2998 32.7 82.1998 32.9 81.2998C33.3 80.2998 35.9 79.4998 37.7 78.8998C37.1 78.7998 35.9 78.2998 35.9 78.2998C33 79.1998 31.3 79.5998 29.8 78.8998C30.2 79.9998 31 80.3998 32.1 80.3998C30.7 80.8998 29.4 82.2998 29 83.6998C30 87.3998 33.2 88.4998 33.2 88.4998C32.4 86.6998 32.7 83.1998 37.5 80.7998C34.6 83.6998 33.4 86.3998 34.2 88.8998C34.9 91.1998 37.3 92.0998 39 92.1998C37.8 88.3998 38.3 84.8998 40.9 82.1998C39.8 85.1998 38.2 94.4998 42.7 95.9998C47.2 94.4998 45.6 85.1998 44.5 82.1998C47.1 84.9998 47.6 88.3998 46.4 92.1998C48.2 92.1998 50.5 91.1998 51.2 88.8998C52 86.3998 50.9 83.6998 47.9 80.7998C52.7 83.1998 53 86.7998 52.2 88.4998C52.2 88.4998 55.4 87.3998 56.4 83.6998C56.4 82.2998 55 80.9998 53.7 80.3998Z" fill="white"/>
<path d="M22.7 61.2998C23.7 60.6998 24.3 59.4998 25 58.0998C24.6 58.2998 24 58.4998 23.4 58.5998C22.8 59.6998 22 59.2998 22 59.0998C22.2 58.8998 22.4 58.5998 22.5 58.3998C22.3 57.8998 22 57.1998 21.8 56.7998C21 58.5998 19.4 60.2998 18.2 60.9998C18.9 61.9998 21.2 62.1998 22.7 61.2998Z" fill="white"/>
<path d="M11.1 41.0999C9.39998 39.9999 8.29998 38.9999 7.69998 38.0999C6.29998 37.5999 4.49998 36.6999 3.69998 35.9999C2.49998 34.9999 2.89998 34.0999 2.99998 33.8999C3.99998 34.9999 6.29998 36.4999 7.99998 37.1999C8.99998 36.7999 10.4 36.4999 11.8 36.2999C7.69998 34.7999 3.29998 31.6999 0.999976 28.8999C0.499976 29.7999 -1.40002 34.0999 2.19998 37.5999C3.99998 39.2999 7.89998 40.5999 11.1 41.0999Z" fill="white"/>
<path d="M11.8 35.6C11.2 34.5 10.7 33.1 10.6 31.8C8.89997 30.5 6.99997 28.8 5.79997 26.8C5.19997 25.7 5.39997 24.7 5.89997 24.4C6.29997 25.6 8.49997 29 10.6 30.7C10.6 29.6 10.8 28.3 11.1 27.4C8.69997 24.8 5.89997 20.2 5.49997 17.5C4.79997 18.1 2.99997 20.6 3.09997 23.1C2.79997 25.3 3.49997 27.5 5.19997 29.7C6.39997 31.4 9.29997 34 11.8 35.6Z" fill="white"/>
<path d="M10.8 48.5001C11.1 47.9001 11.7 47.2001 12.2 46.6001C10.3 47.1001 7.79998 47.2001 6.49998 47.2001C4.89998 47.2001 3.39998 47.1001 2.59998 46.9001C2.69998 48.5001 4.19998 51.2001 7.09998 51.4001C7.29998 51.4001 7.39998 51.4001 7.59998 51.4001C9.39998 51.4001 12.3 50.7001 14.3 50.0001C12.9 49.8001 11.5 49.5001 11.2 49.3001C10.4 49.7001 8.59998 50.0001 7.99998 49.9001C6.69998 49.8001 6.59998 48.8001 6.59998 48.8001C6.59998 48.8001 8.89998 48.9001 10.8 48.5001Z" fill="white"/>
<path d="M3.8 45.7001C4.9 46.1001 6.6 46.3001 8.6 46.3001C9.8 46.3001 11 46.2001 12 46.1001C10.9 45.7001 9.6 45.2001 8.7 44.6001C7.6 44.6001 6.1 44.5001 5.2 44.3001C3.8 43.9001 3.8 42.9001 3.8 42.7001C5 43.2001 7.1 43.7001 8.6 43.7001C9.2 43.2001 10 42.5001 11 41.9001C7.4 41.9001 2.7 40.5001 0.0999976 39.1001C-0.500002 43.9001 2.8 45.3001 3.8 45.7001Z" fill="white"/>
<path d="M10.5 56.4001C10.6 56.4001 10.7 56.4001 10.8 56.4001C13 56.2001 15.6 54.8001 17.3 53.6001C16.8 53.7001 15.3 53.7001 14.7 53.6001C14.5 53.8001 13.4 54.4001 12.6 54.5001C11 54.7001 10.9 53.7001 10.9 53.7001C11.9 53.6001 13.1 53.2001 14.2 52.7001C14.3 51.9001 14.5 51.1001 14.7 50.6001C12.2 52.0001 8.20002 53.0001 5.90002 53.0001C6.40002 54.1001 8.20002 56.4001 10.5 56.4001Z" fill="white"/>
<path d="M14.8 60.0001C15.1 60.0001 15.5 60.0001 15.8 59.9001C17.9 59.4001 20 57.5001 21.2 56.0001C20.5 56.2001 19.8 56.4001 19 56.4001C19 56.4001 18.5 57.0001 18 57.3001C17.8 57.4001 17.6 57.5001 17.4 57.5001C16.8 57.5001 16.5 57.0001 16.5 57.0001C16.5 57.0001 17.5 56.5001 18.1 55.9001C18 55.4001 17.9 54.7001 17.9 54.1001C16.2 55.8001 13.1 57.4001 10.9 57.7001C11.3 58.6001 12.8 60.0001 14.8 60.0001Z" fill="white"/>
<path d="M42.2 5.2998C42.2 5.7998 42.6 6.0998 43 6.0998C43.4 6.0998 43.8 5.6998 43.8 5.2998C43.8 4.7998 43.4 4.4998 43 4.4998C42.6 4.3998 42.2 4.7998 42.2 5.2998Z" fill="white"/>
<path d="M42.5 3.5H43.6L43.5 2.1L44.7 2.3V1.2L43.5 1.3L43.6 0H42.5L42.6 1.3L41.4 1.2V2.3L42.6 2.1L42.5 3.5Z" fill="white"/>
<path d="M38.6 16.7001C38.7 16.7001 38.9 16.8001 39 16.8001H47C47.2 16.8001 47.3 16.8001 47.4 16.7001C47.7 16.6001 47.8 16.4001 47.9 16.1001H38.1C38.2 16.5001 38.4 16.6001 38.6 16.7001Z" fill="white"/>
<path d="M47.4 15.5002C47.5 15.5002 47.5 15.4002 47.5 15.4002V14.8002C47.5 14.7002 47.4 14.7002 47.4 14.7002H38.7C38.6 14.7002 38.6 14.8002 38.6 14.8002V15.4002C38.6 15.5002 38.7 15.5002 38.7 15.5002H47.4Z" fill="white"/>
<path d="M48.3 13.9998C48.5 13.6998 49.6 11.5998 49.6 9.3998C49.6 7.3998 47.1 6.2998 45.7 6.2998C45.5 9.0998 44.4 13.4998 43 13.4998C41.7 13.4998 40.5 9.0998 40.3 6.2998C38.8 6.2998 36.4 7.3998 36.4 9.3998C36.4 11.5998 37.5 13.7998 37.7 13.9998H48.3Z" fill="white"/>
<path d="M43 12.0998C43.7 12.0998 44.5 9.9998 44.8 7.8998C44.8 7.4998 44.1 6.8998 43 6.7998C41.9 6.7998 41.2 7.3998 41.2 7.8998C41.5 9.7998 42.4 12.0998 43 12.0998Z" fill="white"/>
<path d="M55.7 44.8999C55.7 44.5999 55.5 44.3999 55.2 44.3999H30.9C30.6 44.3999 30.4 44.5999 30.4 44.8999V61.5999V61.6999V61.7999C30.4 61.7999 30.4 62.6999 30.8 63.6999C31.3 64.8999 33.4 66.8999 36 68.2999C39.7 70.1999 41.9 71.6999 43 72.5999C44.1 71.6999 46.3 70.1999 50 68.2999C52.7 66.8999 54.7 64.8999 55.2 63.6999C55.7 62.5999 55.6 61.7999 55.6 61.7999L55.7 44.8999ZM47.5 50.9999V51.0999C47.8 52.2999 48.1 53.5999 48.2 54.7999C49.2 55.5999 50.1 56.3999 50.9 57.1999C52.4 55.4999 53.2 53.8999 53.2 52.5999C52.5 52.5999 51.9 51.9999 51.9 51.2999C51.9 50.9999 52 50.7999 52.1 50.5999C51.4 50.2999 50.6 50.1999 49.9 50.1999C49.3 50.1999 48.7 50.2999 48 50.3999H47.9L47.7 50.4999L47.8 50.3999C47.9 50.1999 47.9 50.0999 48 49.8999C50 49.4999 51.6 49.6999 52.6 50.2999C52.8 50.1999 53 50.0999 53.2 50.0999C53.9 50.0999 54.5 50.6999 54.5 51.3999C54.5 51.8999 54.2 52.2999 53.8 52.4999C53.8 53.8999 53 55.6999 51.3 57.6999C51.4 57.7999 51.5 57.8999 51.6 57.9999C51.7 58.0999 51.7 58.0999 51.8 58.1999V58.2999C51.7 58.3999 51.6 58.4999 51.5 58.5999H51.4C51.4 58.5999 51.4 58.5999 51.3 58.5999C51.2 58.4999 51.2 58.4999 51.2 58.3999C51.1 58.2999 51.1 58.1999 51 58.0999C50.8 58.2999 50.6 58.4999 50.4 58.6999L50.2 58.9999C49.9 59.1999 49.6 59.2999 49.4 59.1999H49.3L49.4 59.0999C49.9 58.6999 50.3 58.1999 50.7 57.8999C50.1 57.1999 49.3 56.4999 48.5 55.7999C48.6 56.4999 48.6 57.1999 48.6 57.8999C48.6 58.4999 48.6 59.1999 48.5 59.8999C48.4 59.9999 48.2 60.0999 48.1 60.1999L48 60.2999V60.1999C48.1 59.3999 48.1 58.5999 48.1 57.8999C48.1 57.6999 48.1 57.3999 48.1 57.1999V56.9999C48.1 56.4999 48 55.0999 47.9 54.1999C47.8 53.3999 47.6 52.5999 47.4 51.7999V51.6999C47.5 51.5999 47.6 51.4999 47.7 51.3999L47.5 50.9999ZM39.3 49.1999C40.3 46.7999 41.7 45.4999 43.1 45.4999C44.5 45.4999 45.9 46.7999 46.9 49.1999V49.2999H46.8C46.7 49.2999 46.6 49.3999 46.4 49.4999H46.3V49.3999C45.4 47.2999 44.2 46.0999 43 46.0999C41.8 46.0999 40.6 47.2999 39.7 49.3999V49.4999H39.6C39.5 49.2999 39.3 49.2999 39.3 49.1999ZM38.9 49.7999C39.2 49.9999 40.1 50.4999 41.1 50.1999C42 49.8999 43 49.8999 43 49.8999C43 49.8999 44.1 49.8999 44.9 50.1999C45.9 50.4999 46.8 49.9999 47.1 49.7999C47.2 49.7999 47.2 49.7999 47.2 49.8999C47.1 50.2999 46.8 51.2999 45.3 51.6999C43.9 51.9999 43.2 53.5999 43 54.2999C43 54.3999 42.9 54.3999 42.8 54.2999C42.6 53.5999 41.9 51.9999 40.5 51.6999C39 51.3999 38.7 50.2999 38.6 49.8999C38.8 49.7999 38.9 49.7999 38.9 49.7999ZM41.3 53.7999C41.5 53.7999 41.8 53.6999 42 53.5999C42.1 53.7999 42.2 54.0999 42.3 54.2999C42 54.4999 41.7 54.5999 41.3 54.5999C40.2 54.5999 39.4 53.6999 39.4 52.6999C39.4 52.3999 39.5 52.1999 39.6 51.9999C39.8 52.0999 40 52.1999 40.3 52.2999C40.2 52.3999 40.2 52.5999 40.2 52.6999C40.1 53.2999 40.7 53.7999 41.3 53.7999ZM40.8 52.5999C40.8 52.4999 40.8 52.4999 40.8 52.3999C41.1 52.4999 41.4 52.7999 41.6 52.9999C41.5 53.0999 41.4 53.0999 41.3 53.0999C41 53.0999 40.8 52.8999 40.8 52.5999ZM41.3 55.1999C41.7 55.1999 42.2 55.0999 42.6 54.7999C42.7 54.8999 42.9 55.2999 43 55.2999C43.2 55.2999 43.3 54.8999 43.4 54.7999C43.8 54.9999 44.3 55.1999 44.7 55.1999C45.4 55.1999 46 54.8999 46.5 54.4999C46.5 54.4999 46.5 54.4999 46.5 54.5999C46.7 55.3999 46.8 56.3999 46.7 56.7999C46.7 57.1999 46.5 57.5999 46.4 57.9999C46.2 58.4999 46.1 58.8999 46.1 58.8999C46.1 58.8999 46.1 58.9999 46 59.1999C45.9 59.5999 45.6 60.2999 45.2 60.9999C44.4 60.4999 43.6 60.2999 42.6 60.2999C41.7 60.2999 40.9 60.4999 40.2 60.8999C39.9 60.1999 39.6 59.5999 39.5 59.2999C39.4 59.0999 39.4 58.9999 39.4 58.9999C39.4 58.9999 39.2 58.5999 39 57.9999C38.9 57.6999 38.8 57.2999 38.8 56.8999C38.8 56.5999 38.7 55.5999 39 54.6999C39 54.5999 39.1 54.4999 39.1 54.3999C39.8 54.7999 40.6 55.1999 41.3 55.1999ZM44.8 53.7999C45.5 53.7999 46 53.2999 46 52.5999C46 52.3999 46 52.2999 45.9 52.1999C46.1 52.0999 46.4 51.9999 46.6 51.8999C46.7 52.0999 46.8 52.3999 46.8 52.5999C46.8 53.6999 45.9 54.4999 44.9 54.4999C44.5 54.4999 44.2 54.3999 43.9 54.1999C44 53.9999 44.1 53.7999 44.2 53.4999C44.3 53.6999 44.6 53.7999 44.8 53.7999ZM44.5 52.9999C44.7 52.6999 45 52.4999 45.3 52.3999C45.3 52.4999 45.3 52.4999 45.3 52.5999C45.3 52.8999 45.1 53.0999 44.8 53.0999C44.7 53.0999 44.6 53.0999 44.5 52.9999ZM32.9 50.1999C33.2 50.1999 33.4 50.2999 33.6 50.3999C34.3 49.9999 35.1 49.7999 36.2 49.7999C36.8 49.7999 37.4 49.8999 38.1 49.9999H38.2C38.2 50.0999 38.3 50.2999 38.4 50.4999L38.5 50.5999L38.3 50.4999C38.2 50.4999 38.2 50.4999 38.1 50.4999C37.5 50.3999 36.9 50.2999 36.3 50.2999C35.6 50.2999 34.7 50.3999 34.1 50.7999C34.2 50.9999 34.3 51.1999 34.3 51.4999C34.3 52.1999 33.7 52.7999 33 52.7999C33 53.9999 33.8 55.5999 35.3 57.3999C36.1 56.5999 37 55.6999 38 54.9999C38.1 53.7999 38.4 52.4999 38.7 51.2999V51.1999L38.8 51.2999C38.9 51.3999 39 51.4999 39.1 51.5999C39.1 51.5999 39.1 51.5999 39.2 51.6999V51.7999C39 52.5999 38.8 53.2999 38.7 54.0999V54.1999C38.6 54.7999 38.5 55.5999 38.5 56.3999C38.5 56.9999 38.4 57.4999 38.4 57.8999C38.4 58.4999 38.4 59.0999 38.5 59.8999V59.9999H38.4C38.2 59.8999 38.1 59.8999 38 59.8999H37.9V59.7999C37.9 59.2999 37.8 58.5999 37.8 57.8999C37.8 57.1999 37.8 56.4999 37.9 55.7999C37.1 56.4999 36.3 57.1999 35.7 57.8999C36.2 58.4999 36.9 59.0999 37.7 59.7999L37.8 59.8999H37.7C37.5 59.9999 37.2 59.9999 37 59.8999C36.4 59.2999 35.9 58.8999 35.4 58.3999C35.3 58.4999 35.2 58.5999 35.2 58.6999L35.1 58.7999C35 58.7999 34.9 58.8999 34.7 58.9999L34.6 58.8999C34.6 58.8999 34.5 58.8999 34.5 58.7999H34.4V58.6999C34.6 58.3999 34.8 58.1999 35 57.9999C33.3 56.0999 32.5 54.2999 32.5 52.8999C32.1 52.6999 31.8 52.2999 31.8 51.7999C31.6 50.7999 32.2 50.1999 32.9 50.1999ZM47.1 65.6999C46.4 67.6999 45.4 69.0999 44.3 69.6999C44.2 70.2999 43.7 70.7999 43.1 70.7999C42.5 70.7999 42 70.2999 41.9 69.6999C40.8 69.0999 39.8 67.7999 39.1 65.7999V65.6999L39.7 65.4999V65.5999C40.3 67.2999 41.1 68.4999 42 69.0999C42.2 68.5999 42.6 68.1999 43.2 68.1999C43.8 68.1999 44.2 68.5999 44.4 68.9999C45.3 68.3999 46.1 67.1999 46.7 65.5999V65.4999H46.8C46.8 65.5999 46.9 65.5999 47.1 65.6999ZM42 65.5999C42 65.1999 42.1 64.0999 42.3 63.6999C42.5 63.5999 42.8 63.4999 43.1 63.4999C43.4 63.4999 43.7 63.5999 44 63.7999C44.1 64.1999 44.3 65.1999 44.3 65.5999C44.3 65.9999 43.3 66.2999 43.2 66.3999C42.9 66.2999 42 66.0999 42 65.5999ZM54.8 61.5999C54.7 61.6999 54.6 61.7999 54.5 61.7999C54.4 61.7999 54.3 61.8999 54.1 61.8999H54C53.8 61.8999 53.6 61.8999 53.5 61.7999C53.4 61.7999 53.4 61.6999 53.3 61.6999C53 61.6999 52.3 61.8999 52.1 61.9999C52.2 61.9999 53.1 62.0999 53.7 62.5999C54 62.7999 54.6 62.8999 54.8 62.8999C54.8 62.9999 53.8 63.6999 51.9 63.2999L51.4 63.1999C50.5 62.9999 49.7 62.8999 48.8 62.8999C48.9 62.8999 49 62.9999 49 62.9999C49.2 63.0999 49.5 63.1999 49.7 63.2999C49.7 63.2999 49.8 63.2999 49.8 63.3999H49.9C50 63.3999 50.1 63.3999 50.1 63.4999C50.2 63.4999 50.3 63.5999 50.4 63.5999C50.5 63.6999 50.7 63.7999 50.7 63.8999C50.7 63.9999 50.8 63.9999 50.8 64.0999C50.8 64.2999 50.8 64.3999 50.7 64.5999C50.4 64.9999 50 64.9999 49.6 64.5999L49.5 64.4999C49.4 64.3999 49.3 64.2999 49.2 64.0999V63.9999C49.2 63.9999 49.2 63.9999 49.1 63.9999C48.9 63.8999 48.8 63.6999 48.6 63.6999C48.3 63.5999 47.9 63.4999 47.6 63.3999C47.5 63.3999 47.4 63.3999 47.3 63.3999C47.6 63.5999 47.9 63.7999 48 63.9999C48 63.9999 48 63.9999 48 64.0999C48.2 64.3999 48.2 64.6999 48.3 64.9999C48.6 65.5999 48.7 65.6999 49 65.8999C48.7 65.9999 47.2 65.9999 46.5 64.8999C46.5 64.8999 46.4 64.7999 46.4 64.6999C46.2 64.2999 46.1 63.8999 46 63.5999C45.9 63.2999 46.1 62.9999 45.9 62.8999C45.7 62.7999 45.6 62.8999 45.6 62.8999C45.5 62.9999 45.5 62.9999 45.5 62.9999V63.0999C45.5 63.1999 45.4 63.1999 45.4 63.1999V63.2999C45.4 63.2999 45.4 63.3999 45.3 63.3999C45.3 63.3999 45.3 63.3999 45.2 63.3999C45.1 63.3999 45.1 63.3999 45 63.3999C45 63.3999 45 63.3999 44.9 63.3999C44.9 63.3999 44.8 63.3999 44.8 63.4999C44.7 63.4999 44.6 63.5999 44.5 63.5999C44.4 63.5999 44.3 63.4999 44.3 63.3999C44.3 63.2999 44.3 63.2999 44.3 63.1999C44.2 63.1999 44.2 63.1999 44.1 63.1999C44 63.1999 44 63.1999 43.9 63.0999C43.9 62.9999 43.9 62.8999 43.9 62.8999C43.9 62.7999 43.9 62.7999 43.9 62.7999C43.8 62.8999 43.8 62.8999 43.7 62.8999C43.6 62.8999 43.6 62.8999 43.5 62.8999C43.4 62.8999 43.4 62.7999 43.4 62.6999V62.5999C43.4 62.5999 43.4 62.5999 43.4 62.4999C43.4 62.4999 43.4 62.4999 43.3 62.4999H43.2C43.1 62.4999 42.9 62.3999 42.8 62.3999C42.8 62.3999 42.8 62.3999 42.7 62.3999C42.6 62.3999 42.4 62.4999 42.3 62.4999H42.2H42.1C42.1 62.4999 42.1 62.4999 42.1 62.3999C42.1 62.3999 42.1 62.3999 42.1 62.2999L42.2 62.1999C42.2 62.1999 42.2 62.1999 42.2 62.0999C42.1 62.0999 42.1 62.0999 42 62.0999V62.1999C42 62.1999 42 62.1999 41.9 62.1999V62.2999V62.3999C41.9 62.4999 41.9 62.5999 41.8 62.5999C41.7 62.6999 41.7 62.6999 41.6 62.5999C41.6 62.5999 41.5 62.5999 41.5 62.4999C41.5 62.4999 41.4 62.4999 41.4 62.3999C41.4 62.3999 41.4 62.4999 41.5 62.4999C41.5 62.5999 41.5 62.5999 41.5 62.6999C41.4 62.7999 41.4 62.7999 41.3 62.7999H41.2H41.1C41.1 62.8999 41.2 62.8999 41.1 62.9999C41.1 63.0999 41 63.0999 40.9 63.0999C40.8 63.0999 40.8 63.0999 40.7 63.0999C40.7 63.0999 40.7 63.0999 40.6 63.0999H40.5L40.4 62.9999C40.4 62.9999 40.3 62.9999 40.2 62.9999C40.2 62.9999 40.1 62.9999 40.1 62.8999L40 62.7999V62.6999C39.8 62.4999 39.5 63.1999 39.5 63.1999C38.6 65.0999 36.4 65.4999 36.4 65.3999C36.4 65.3999 36.9 65.1999 37.1 64.4999C37.2 64.0999 37.2 63.9999 37.4 63.5999C37.4 63.4999 37.5 63.4999 37.5 63.3999C37.6 63.1999 37.9 63.0999 38.1 62.8999C38 62.8999 37.9 62.8999 37.8 62.8999C37.5 62.9999 37.2 62.9999 36.8 63.1999C36.6 63.2999 36.5 63.3999 36.3 63.4999C36.3 63.4999 36.3 63.4999 36.2 63.4999V63.5999C36.2 63.6999 36.1 63.7999 36 63.9999L35.9 64.0999C35.5 64.4999 35.2 64.4999 34.8 64.0999L34.7 63.9999C34.6 63.8999 34.6 63.6999 34.7 63.5999C34.7 63.4999 34.8 63.3999 34.9 63.2999C35 63.1999 35.1 63.1999 35.2 63.0999C35.3 62.9999 35.4 62.9999 35.5 62.9999C35.6 62.9999 35.6 62.9999 35.7 62.8999C35.7 62.8999 35.8 62.8999 35.9 62.8999C35.9 62.8999 35.9 62.7999 36 62.7999C36.1 62.7999 36.2 62.6999 36.3 62.6999C36.4 62.6999 36.5 62.5999 36.6 62.5999C36.6 62.5999 36.7 62.5999 36.8 62.4999C36 62.4999 35.2 62.5999 34.3 62.7999C34.2 62.7999 34 62.8999 33.8 62.8999C32.8 63.0999 30.9 62.5999 30.9 62.4999C30.9 62.3999 31.4 62.3999 31.9 62.0999C32.3 61.8999 32.5 61.6999 32.8 61.5999C33.3 61.9999 33.9 61.9999 34 61.9999C33.8 61.8999 32.9 61.7999 32.6 61.6999C32.6 61.6999 32.5 61.7999 32.4 61.7999C32.2 61.8999 32 61.8999 31.8 61.8999C31.7 61.8999 31.5 61.8999 31.4 61.7999C31.3 61.7999 31.2 61.6999 31.1 61.5999C31 61.4999 31 61.3999 31 61.0999C31.1 60.6999 31.5 60.4999 32 60.5999C32.3 60.6999 32.5 60.7999 32.6 60.8999L32.7 60.9999C33 60.9999 33.4 61.1999 33.8 61.2999C34.2 61.4999 34.5 61.5999 34.7 61.5999C34.6 61.5999 34.5 61.4999 34.4 61.4999C34.3 61.4999 34.2 61.3999 34.2 61.3999C34.1 61.2999 34 61.2999 33.9 61.1999C33.3 60.8999 32.7 60.5999 32.3 60.1999C32 59.7999 31.9 59.5999 31.8 59.1999C31.7 58.2999 31.3 57.8999 31.3 57.7999C31.4 57.6999 32.8 58.3999 33.3 58.8999C33.6 59.2999 33.7 59.5999 33.8 59.8999V59.9999C33.9 60.2999 34.2 60.5999 34.7 60.8999C34.8 60.8999 34.8 60.9999 34.9 60.9999C34.8 60.7999 34.7 60.6999 34.6 60.4999V60.3999L34.5 60.2999C34.5 60.2999 34.4 60.1999 34.4 60.0999C34.3 59.9999 34.3 59.8999 34.2 59.7999C34.1 59.4999 34.1 59.1999 34.2 59.0999C34.3 58.9999 34.4 58.8999 34.6 58.7999C35 58.6999 35.3 58.8999 35.4 59.4999C35.4 59.5999 35.4 59.6999 35.4 59.7999C35.4 59.8999 35.4 59.9999 35.4 60.0999V60.1999C35.4 60.1999 35.4 60.1999 35.4 60.2999C35.6 60.8999 36.1 61.3999 36.7 61.7999C36 61.1999 35.6 59.7999 35.7 59.7999C35.8 59.6999 36.4 60.0999 37 60.3999C37.3 60.4999 37.6 60.6999 37.9 60.8999C38.1 60.9999 38.3 61.1999 38.4 61.2999C38.6 61.3999 38.7 61.5999 38.8 61.6999C38.9 61.7999 39 61.8999 39.1 61.9999C39.2 62.0999 39.2 62.0999 39.3 62.1999C39.5 62.2999 39.8 62.1999 39.8 62.1999C39.9 62.1999 40 62.1999 40.1 62.0999C40.1 62.0999 40.1 62.0999 40.2 61.9999C40.3 61.8999 40.4 61.8999 40.5 61.8999V61.7999C40.5 61.5999 40.6 61.4999 40.8 61.3999C40.8 61.3999 40.9 61.3999 40.9 61.2999H41H41.1H41.2C41.2 61.1999 41.3 61.1999 41.4 61.0999C41.6 60.9999 41.9 60.9999 42.1 61.1999C42.2 61.2999 42.2 61.3999 42.3 61.4999V61.5999C42.3 61.6999 42.3 61.6999 42.3 61.7999C42.3 61.8999 42.3 61.8999 42.3 61.9999C42.4 61.9999 42.6 61.9999 42.7 61.9999C42.8 61.9999 42.8 61.9999 42.9 61.9999C43 61.9999 43.1 61.9999 43.2 62.0999C43.3 62.0999 43.4 61.9999 43.5 61.9999C43.6 61.9999 43.6 61.9999 43.7 61.9999H43.8C43.8 61.8999 43.8 61.7999 43.8 61.6999C43.8 61.5999 43.8 61.4999 43.9 61.3999C43.9 61.3999 43.9 61.2999 44 61.2999L44.1 61.1999C44.3 61.0999 44.5 61.0999 44.7 61.1999C44.8 61.1999 44.8 61.2999 44.9 61.3999C45 61.3999 45 61.3999 45.1 61.3999H45.2H45.3C45.5 61.4999 45.6 61.5999 45.6 61.7999C45.6 61.7999 45.6 61.7999 45.7 61.7999H45.8C45.8 61.7999 46.3 61.7999 46.4 61.8999H46.9C47 61.7999 47 61.7999 47.1 61.6999C47.2 61.5999 47.4 61.3999 47.5 61.2999C47.7 61.1999 47.8 60.9999 48 60.8999C48.3 60.6999 48.7 60.5999 49 60.4999C50 60.0999 50.1 59.4999 50.2 59.4999C50.3 59.5999 50 61.1999 49.3 61.7999C49.8 61.3999 50.3 60.8999 50.6 60.2999C50.6 60.2999 50.6 60.2999 50.6 60.1999V60.0999C50.6 59.9999 50.6 59.8999 50.6 59.7999C50.6 59.6999 50.6 59.5999 50.6 59.4999C50.8 58.9999 51 58.6999 51.4 58.7999C51.6 58.8999 51.7 58.9999 51.8 59.0999C51.9 59.2999 51.9 59.4999 51.8 59.7999C51.8 59.8999 51.7 59.9999 51.6 60.0999C51.5 60.1999 51.5 60.1999 51.4 60.2999L51.3 60.3999V60.4999C51.2 60.6999 51.1 60.7999 50.9 60.9999C51 60.8999 51 60.8999 51.1 60.7999C51.6 60.3999 51.9 60.0999 52 59.7999C52.1 59.4999 52.2 59.1999 52.5 58.7999C53 58.2999 53.1 58.0999 53.6 57.7999C53.7 57.6999 54.4 57.5999 54.5 57.5999C54.6 57.6999 54 57.8999 53.8 58.8999C53.7 59.1999 53.6 59.6999 53.3 60.0999C52.9 60.5999 52.5 60.6999 52 60.9999L51.9 61.0999C51.8 61.1999 51.7 61.1999 51.5 61.2999C51.3 61.3999 51.2 61.4999 51.1 61.4999C51.4 61.3999 51.7 61.2999 52.1 61.1999C52.4 60.9999 52.8 60.8999 53.2 60.8999C53.2 60.8999 53.2 60.7999 53.3 60.7999C53.4 60.6999 53.6 60.5999 53.9 60.4999C54.4 60.2999 54.8 60.4999 54.9 60.9999C55 61.2999 54.9 61.4999 54.8 61.5999Z" fill="white"/>
<path d="M72.3 41.5C73.8 40.8 76.3 39.1 77.3 37.9C75.9 37.4 73.1 37.1 71.5 37.1C74.8 34.8 74.9 30 74 26.5C73.2 29.3 71.2 31.6 69.9 33C70 34.4 69.6 36.8 68.8 38.2C69.9 38.6 71.2 39.2 72.1 39.9C71.5 40.7 70.2 41.8 69.4 42.5C70.1 43.2 71.2 44.5 71.8 45.3C71 45.9 69.4 46.5 68.5 46.8C68.9 47.7 69.5 49.2 69.7 50.3C68.7 50.5 67.4 50.6 66 50.6C66.1 51.6 65.9 53.2 65.7 54.2C64.4 54.1 62.9 53.6 62.2 53.2C61.8 54.6 60.9 56 60.9 56.1C59.7 54.7 58.5 54.2 57.4 54.2V53.3C58.5 53.3 59.7 53.7 60.6 54.6C61 53.9 61.4 52.6 61.6 51.8C62.4 52.2 63.7 52.7 64.8 52.9C64.9 51.9 65 50.6 64.9 49.6C66 49.7 67.2 49.7 68.5 49.5C68.3 48.6 67.5 47.1 67 46.3C68.1 46 69.5 45.4 70.2 45C69.6 44.2 68.6 43.1 67.9 42.4C68.7 41.8 70 40.8 70.5 40.2C69.6 39.6 68.4 39 67.4 38.6C68.8 36.7 69.1 32.8 68.8 31C67.6 35.1 64 38.1 61.8 39.5C61.7 39.6 61.6 39.7 61.5 39.7C61.4 39.8 61 40.3 61.2 40.9C61.2 41.1 61.3 41.2 61.3 41.4C61.5 42.2 61.5 43.4 60.3 44.5C59.3 45.4 58.1 45.5 57.4 45.4V43.2C57.4 42.9 57.2 42.7 56.9 42.7H55.4L54.7 42C54.7 42 55.4 42 56.2 42C57 41.9 57.9 41.5 57.9 41.5C57.9 41.5 57 41.5 56.6 41.4C56.1 41.5 55 41 54.1 40C53.8 39.6 53.5 39.2 53.3 38.8C52.5 38.1 51.6 37.2 51 35.9C50.6 35 50.4 33.7 50.3 32.9C50 33.1 49.7 33.5 49.3 34C48.6 34.9 48.3 36.2 48.3 36.2L48 37.2L47.5 36.3C47.5 36.3 46.8 35.1 46.7 33.6C46.7 32.9 46.7 32.3 46.8 31.8C46.6 31.9 46.3 32.1 46 32.3C44.8 33.2 44.1 34.1 44.1 34.1C43.5 34.9 43.1 35.6 43 35.9C42.9 35.5 42.5 34.9 41.9 34.1C41.9 34.1 41.3 33.1 40 32.3C39.7 32.1 39.4 31.9 39.2 31.8C39.3 32.3 39.3 33 39.3 33.6C39.2 35.1 38.5 36.2 38.5 36.3L38 37.1L37.7 36.1C37.7 36.1 37.3 34.8 36.7 33.9C36.3 33.4 36 33 35.7 32.8C35.6 33.6 35.4 35 35 35.8C34.4 37.1 33.6 38.1 32.7 38.7C32.5 39.1 32.2 39.5 31.9 39.9C31 40.9 29.9 41.4 29.4 41.5C29 41.6 28.1 41.6 28.1 41.6C28.1 41.6 29 42 29.8 42.1C30.6 42.2 31.3 42.1 31.3 42.1L30.6 42.8H29.1C28.8 42.8 28.6 43 28.6 43.3V45.5C27.9 45.6 26.6 45.5 25.7 44.6C24.6 43.5 24.5 42.3 24.7 41.5C24.8 41.4 24.8 41.2 24.8 41C25 40.4 24.6 39.9 24.5 39.8C24.4 39.7 24.3 39.6 24.2 39.6C22 38.2 18.5 35.2 17.2 31.1C16.9 32.9 17.3 36.7 18.6 38.7C17.6 39.1 16.3 39.7 15.5 40.3C16 40.9 17.3 42 18.1 42.5C17.4 43.1 16.3 44.3 15.8 45.1C16.5 45.5 17.9 46.1 19 46.4C18.5 47.2 17.7 48.7 17.5 49.6C18.7 49.8 20 49.8 21.1 49.7C21 50.7 21.1 52.1 21.2 53C22.3 52.8 23.6 52.4 24.4 51.9C24.6 52.6 25 54 25.4 54.7C26.3 53.8 27.5 53.4 28.6 53.4V54.3C27.5 54.3 26.3 54.8 25.1 56.2C25.1 56.1 24.2 54.7 23.8 53.3C23.1 53.6 21.6 54.2 20.3 54.3C20.1 53.3 20 51.7 20 50.7C18.6 50.7 17.3 50.6 16.3 50.4C16.5 49.3 17.1 47.8 17.5 46.9C16.6 46.6 15 45.9 14.2 45.4C14.7 44.6 15.9 43.3 16.6 42.6C15.8 42 14.5 40.8 13.9 40C14.8 39.3 16.1 38.7 17.2 38.3C16.4 36.8 16 34.4 16.1 33.1C14.7 31.7 12.7 29.4 12 26.6C11 30.1 11.2 35 14.5 37.2C12.9 37.2 10.1 37.6 8.70001 38C9.70001 39.2 12.2 40.8 13.7 41.6C12.5 42 10.4 43.2 9.50001 44C10.6 44.7 13.1 45.5 14.3 45.8C13.6 46.4 12.2 48 11.7 48.8C12.7 49.1 14.7 49.4 16 49.4C15.6 50.3 15.1 51.8 15 52.7C15.6 52.8 17.7 52.7 18.8 52.4C18.7 53.3 18.7 54.8 18.9 55.5C19.9 55.4 21.4 54.9 22.1 54.7C22.3 55.5 23 57.1 23.3 57.5C23.8 57.4 24.3 57.3 24.8 57.1C26.2 56.6 27.7 57.2 28.3 58.5C29.3 60.8 28.9 63.5 27 63C24.8 63.4 26.3 66.2 25 67.1C26.7 68.3 27.2 65.5 29.4 66C29.2 67 29.2 68.9 29.4 69.7C30.1 69.2 31.1 68.8 31.7 68.7C31.5 69.3 31.4 70.7 31.6 71.6C32 71.3 34.9 70.5 34.9 70.5C34.9 70.5 33.8 72.7 34.5 74.9C34.9 75.2 37.5 73.9 37.5 73.2C37.6 74.1 36.5 76.1 34.8 76.5C36.6 78.3 38.2 78.2 38.4 78.2C38.7 78.2 38.9 78.2 39.1 78C39 78.5 38.9 79.2 39 79.6C39.1 79.6 39.2 79.6 39.3 79.6C39.8 79.6 40.2 79.5 40.5 79.4C40.6 79.9 40.8 80.4 41.1 80.8C41.2 80.9 41.2 80.9 41.3 81C41.7 81 42.7 80.5 42.9 80.2C43.1 80.5 44.1 81 44.5 81C44.6 80.9 44.7 80.9 44.7 80.8C45.1 80.4 45.3 79.8 45.3 79.4C45.7 79.6 46.1 79.6 46.5 79.6C46.6 79.6 46.7 79.6 46.8 79.6C46.9 79.2 46.9 78.5 46.7 78C46.9 78.1 47.2 78.2 47.4 78.2C47.6 78.2 49.2 78.3 51 76.5C49.3 76.1 48.2 74.1 48.3 73.2C48.3 74 50.9 75.2 51.3 74.9C52 72.7 50.9 70.5 50.9 70.5C50.9 70.5 53.7 71.2 54.2 71.6C54.4 70.7 54.3 69.3 54.1 68.7C54.7 68.7 55.7 69.2 56.4 69.7C56.6 68.9 56.6 67.1 56.4 66C58.5 65.5 59 68.3 60.8 67.1C59.6 66.2 61.1 63.4 58.8 63C56.9 63.6 56.5 60.8 57.5 58.5C58.1 57.2 59.7 56.6 61 57.1C61.5 57.3 62 57.4 62.5 57.5C62.7 57.1 63.5 55.5 63.7 54.7C64.4 55 65.9 55.4 66.9 55.5C67 54.8 67.1 53.3 67 52.4C68 52.6 70.2 52.7 70.8 52.7C70.7 51.7 70.2 50.2 69.8 49.4C71.1 49.3 73.1 49.1 74.1 48.8C73.6 47.9 72.2 46.3 71.5 45.8C72.7 45.5 75.2 44.7 76.3 44C75.6 43.1 73.5 41.9 72.3 41.5ZM56.1 64C56 64.2 55.9 64.3 55.8 64.5C55.8 64.6 55.7 64.6 55.7 64.7C55.6 64.8 55.5 64.9 55.4 65.1C55.3 65.2 55.3 65.2 55.2 65.3C55.1 65.5 54.9 65.6 54.8 65.8C54.7 65.9 54.6 66 54.5 66.1C54.4 66.2 54.3 66.3 54.2 66.4C54.1 66.5 54 66.6 53.8 66.8C53.7 66.9 53.7 66.9 53.6 67C53.3 67.3 52.9 67.6 52.5 67.8C52 68.2 51.5 68.5 50.9 68.8C50.7 68.9 50.5 69 50.3 69.1C45.8 71.4 43.6 73.2 42.9 73.7H42.8C42.1 73.1 39.9 71.4 35.4 69.1C35.2 69 35 68.9 34.8 68.8C34.2 68.5 33.7 68.2 33.2 67.8C32.8 67.5 32.5 67.2 32.1 67C32 66.9 31.9 66.9 31.9 66.8C31.8 66.7 31.6 66.6 31.5 66.4C31.4 66.3 31.3 66.2 31.2 66.1C31.1 66 31 65.9 30.9 65.8C30.7 65.6 30.6 65.5 30.5 65.3C30.4 65.2 30.4 65.2 30.3 65.1C30.2 65 30.1 64.9 30 64.7C30 64.6 29.9 64.6 29.9 64.5C29.8 64.3 29.7 64.2 29.6 64C29 62.7 29.1 61.6 29.1 61.6V44.1C29.1 43.8 29.3 43.6 29.6 43.6H31.1H43H54.5H56C56.3 43.6 56.5 43.8 56.5 44.1V61.6C56.6 61.6 56.7 62.7 56.1 64Z" fill="white"/>
<path d="M55.5 16.0001C55.9 16.0001 56.1 15.7001 56.1 15.3001C56.1 14.9001 55.8 14.6001 55.5 14.6001C55.1 14.6001 54.9 14.9001 54.9 15.3001C54.9 15.7001 55.2 16.0001 55.5 16.0001Z" fill="white"/>
<path d="M55.5 19.6999C55.9 19.6999 56.3 17.9999 56.3 17.1999C56.3 16.6999 55.9 16.3999 55.5 16.3999C55.1 16.3999 54.7 16.6999 54.7 17.1999C54.7 17.9999 55.1 19.6999 55.5 19.6999Z" fill="white"/>
<path d="M55.1 13.5998H56L55.8 12.4998L56.9 12.5998V11.6998L55.8 11.8998L56 10.7998H55.1L55.2 11.8998L54.1 11.6998V12.5998L55.2 12.4998L55.1 13.5998Z" fill="white"/>
<path d="M51.6 21.7002C51.9 21.8002 52.2 21.8002 52.5 21.9002H52.6H52.7C52.8 21.9002 52.8 21.9002 52.8 21.9002H53C53.1 21.9002 53.2 21.9002 53.3 21.9002C53.4 21.9002 53.4 21.9002 53.5 21.9002C53.6 21.9002 53.7 21.9002 53.8 21.9002C54.6 21.9002 55.4 21.7002 56.2 21.5002C57 21.3002 57.8 21.1002 58.7 21.1002H58.8H58.9H59H59.1H59.2H59.3C59.5 20.2002 59.8 19.2002 59.8 18.6002C59.8 17.4002 59.1 16.1002 56.8 15.7002C56.8 17.2002 56.1 20.7002 55.3 20.7002H55.2C54.4 20.7002 53.7 17.2002 53.7 15.7002C51.4 16.1002 50.7 17.4002 50.7 18.6002C50.7 19.3002 51 20.6002 51.3 21.5002C51.6 21.6002 51.6 21.6002 51.6 21.7002Z" fill="white"/>
<path d="M63.6 15.4001C63.6 15.4001 63 13.8001 64 13.3001C65.1 12.9001 63.6 13.1001 64.4 10.9001C65.3 8.30014 67.3 8.90014 67.3 8.90014C65.9 7.80014 64.8 7.90014 64 8.50014C63.5 8.90014 62.8 9.70014 62.3 11.3001C61.9 13.3001 62.6 15.2001 63.6 15.4001Z" fill="white"/>
<path d="M68.8 11.5C68.9 14.8 74.4 16.2 74.4 16.2C74.4 16.2 71.2 13.9 71.8 12.2C71.8 12.2 73.9 13.1 76.3 12.7C71.2 11.6 72.9 9.99999 71.6 8.69999C70.3 7.29999 68.3 7.19999 67.8 7.09999C66.5 6.99999 66.4 6.99999 64.9 7.39999C68.4 7.49999 68.8 9.29999 68.8 11.5Z" fill="white"/>
<path d="M68.1 17.7C68.8 15.1 67.5 13.9 67.5 13.9C67.1 13.4 65 13.5 64.2 14C64.2 14 66.2 14 65.9 16.9C65.6 19.8 61.6 20.4 60.5 20.5L60.4 20.9C62.3 20.9 67.3 20.3 68.1 17.7Z" fill="white"/>
<path d="M47.2 17.6001H45.2C46.2 20.4001 49.1 21.3001 51 21.6001L50.9 21.3001C48.9 20.5001 47.9 19.7001 47.2 17.6001Z" fill="white"/>
<path d="M30.6 16.0001C31 16.0001 31.2 15.7001 31.2 15.3001C31.2 14.9001 30.9 14.6001 30.6 14.6001C30.2 14.6001 30 14.9001 30 15.3001C29.9 15.7001 30.2 16.0001 30.6 16.0001Z" fill="white"/>
<path d="M30.6 19.6999C31 19.6999 31.4 17.9999 31.4 17.1999C31.4 16.6999 31 16.3999 30.6 16.3999C30.2 16.3999 29.8 16.6999 29.8 17.1999C29.8 17.9999 30.1 19.6999 30.6 19.6999Z" fill="white"/>
<path d="M30.1 13.5998H31L30.9 12.4998L32 12.5998V11.6998L30.9 11.8998L31 10.7998H30.1L30.3 11.8998L29.2 11.6998V12.5998L30.3 12.4998L30.1 13.5998Z" fill="white"/>
<path d="M26.6 21.0998H26.7H26.8H27C27.1 21.0998 27.1 21.0998 27.1 21.0998H27.2C28.1 21.1998 29 21.2998 29.7 21.4998C30.4 21.6998 31.3 21.8998 32.1 21.8998C32.2 21.8998 32.3 21.8998 32.4 21.8998C32.5 21.8998 32.5 21.8998 32.6 21.8998C32.7 21.8998 32.8 21.8998 32.9 21.8998H33.1H33.2H33.3H33.4C33.7 21.8998 34 21.7998 34.3 21.6998C34.3 21.5998 34.3 21.5998 34.4 21.5998C34.7 20.6998 35 19.3998 35 18.6998C35 17.4998 34.4 16.1998 32 15.7998C32 17.1998 31.3 20.7998 30.5 20.7998H30.4C29.6 20.7998 28.9 17.2998 28.9 15.7998C26.6 16.1998 25.9 17.4998 25.9 18.6998C25.9 19.2998 26.1 20.2998 26.4 21.1998C26.5 21.0998 26.5 21.0998 26.6 21.0998Z" fill="white"/>
<path d="M18.7 8.90011C18.7 8.90011 20.7 8.30011 21.6 10.9001C22.4 13.1001 20.9 12.9001 22 13.3001C23.1 13.7001 22.4 15.4001 22.4 15.4001C23.5 15.2001 24.2 13.3001 23.6 11.2001C23.1 9.60011 22.4 8.80011 21.9 8.40011C21.1 7.90011 20.1 7.80011 18.7 8.90011Z" fill="white"/>
<path d="M14.2 12.2001C14.8 13.9001 11.6 16.2001 11.6 16.2001C11.6 16.2001 17.2 14.8001 17.2 11.5001C17.3 9.3001 17.6 7.5001 21 7.4001C19.5 7.1001 19.4 7.1001 18.1 7.1001C17.6 7.1001 15.6 7.3001 14.3 8.7001C13.1 10.0001 14.7 11.6001 9.59998 12.7001C12.1 13.1001 14.2 12.2001 14.2 12.2001Z" fill="white"/>
<path d="M20.2 16.8999C19.9 13.9999 21.9 13.9999 21.9 13.9999C21.2 13.4999 19.1 13.4999 18.6 13.8999C18.6 13.8999 17.3 14.9999 18 17.6999C18.7 20.2999 23.8 20.8999 25.7 20.8999L25.6 20.4999C24.5 20.3999 20.5 19.7999 20.2 16.8999Z" fill="white"/>
<path d="M40.9 17.6001H38.9C38.2 19.7001 37.2 20.5001 35.2 21.3001L35.1 21.6001C37.1 21.3001 39.9 20.4001 40.9 17.6001Z" fill="white"/>
<path d="M45.6 29.8999C45 30.7999 44.5 31.7999 44.1 32.7999C44.4 32.3999 44.9 31.9999 45.4 31.5999C46.3 30.9999 47.1 30.5999 47.1 30.5999L47.9 30.2999L47.7 31.0999C47.7 31.0999 47.4 32.3999 47.5 33.4999C47.5 33.9999 47.7 34.4999 47.8 34.7999C48 34.2999 48.3 33.7999 48.6 33.2999C49.6 31.9999 50.4 31.4999 50.4 31.4999L51 31.1999V31.8999C51 31.8999 51.2 34.1999 51.7 35.3999C52.6 37.3999 54.3 38.4999 55.3 38.9999C55.2 38.8999 55 38.6999 54.8 38.4999C54.3 37.9999 53.8 37.0999 53.5 35.1999C53.3 33.5999 53.9 31.9999 54.1 31.4999C54.2 31.8999 54.4 32.2999 54.6 32.3999C54.6 32.3999 54.6 31.9999 54.7 31.5999C54.9 30.4999 56.1 28.7999 57.7 27.7999C58 27.5999 58.3 27.3999 58.5 27.2999C58.8 27.1999 59 26.9999 59.2 26.7999C58.9 26.7999 58.5 26.8999 58.2 26.8999H58.1C57.9 26.8999 57.6 26.8999 57.2 26.8999C56.4 26.8999 55.5 26.7999 54.8 26.1999C54.1 25.5999 53.8 24.9999 53.7 24.5999C53.4 24.5999 53 24.5999 52.5 24.5999C51.9 24.5999 51.4 24.3999 51.1 24.3999C50.3 24.8999 49.5 25.0999 48.5 25.1999C48.4 25.1999 48.2 25.1999 48.1 25.1999C48.4 25.4999 48.8 25.6999 49.1 25.8999C49.1 25.8999 49.1 25.8999 49.2 25.8999L49 25.9999C49.1 25.8999 47.7 26.6999 45.6 29.8999Z" fill="white"/>
<path d="M58.7 24.2998C58.3 24.2998 58 24.2998 57.6 24.2998C57.6 24.4998 57.6 24.6998 57.6 24.8998C57.7 25.1998 57.8 25.3998 58 25.5998C58.3 25.3998 58.6 24.8998 58.7 24.2998Z" fill="white"/>
<path d="M59.5 22.0002C59.4 22.0002 59.4 22.0002 59.5 22.0002H59.4C59.4 22.0002 59.4 22.0002 59.3 22.0002C59.2 22.0002 59.2 22.0002 59.1 22.0002C58.3 22.0002 57.5 22.2002 56.7 22.4002C55.9 22.6002 55 22.8002 54.2 22.8002C54 22.8002 53.9 22.8002 53.7 22.8002C53.6 22.8002 53.5 22.8002 53.4 22.8002C53.3 22.8002 53.3 22.8002 53.2 22.8002C53.1 22.8002 53.1 22.8002 53 22.8002C53 22.8002 53 22.8002 52.9 22.8002C52.9 22.8002 52.9 22.8002 52.8 22.8002C51 22.6002 49.8 22.0002 49.2 21.7002C49.3 21.9002 49.5 22.1002 49.8 22.4002C49.9 22.5002 50 22.6002 50.1 22.7002C50.3 22.9002 50.6 23.1002 50.9 23.3002C51.3 23.5002 53 24.2002 55.2 23.9002C57.7 23.5002 58.2 23.6002 58.8 23.6002H59C59.9 23.7002 61.2 24.2002 61.7 24.5002C61.9 24.0002 62.2 23.5002 62.3 23.0002C62.2 22.9002 62 22.7002 61.6 22.5002C61.5 22.4002 61.4 22.4002 61.2 22.3002C61 22.2002 60.7 22.1002 60.3 22.1002C59.9 22.0002 59.7 22.0002 59.5 22.0002Z" fill="white"/>
<path d="M66.5 30.2001C66.4 30.2001 65.5 30.7001 63.6 29.5001C61.7 28.3001 60.3 27.8001 59.5 27.6001C59.3 27.7001 59.2 27.8001 59 27.9001C58.8 28.0001 58.5 28.2001 58.2 28.4001C58.1 28.5001 58 28.5001 57.9 28.6001C57.9 28.6001 58 28.6001 58.1 28.6001C59.9 28.8001 61.3 29.8001 61.4 30.2001H61.5C61.7 29.6001 61.4 29.1001 61.4 29.1001C61.4 29.1001 62.2 29.6001 63.8 30.5001C65.5 31.6001 66.2 30.6001 66.5 30.2001Z" fill="white"/>
<path d="M57 25.3C56.9 25.2 56.8 25 56.7 24.9C56.6 24.7 56.6 24.6 56.6 24.5C56.2 24.5 55.7 24.6 55.1 24.7C55 24.7 54.8 24.7 54.7 24.7C55 25.3 55.5 25.9 56.5 26.1C56.6 26.1 56.6 26.1 56.7 26.1C56.8 26.1 56.8 26.1 56.9 26.1C57.3 26.2 57.8 26.2 58.1 26.2C58.8 26.2 59.6 26.1 60.4 25.9C60.6 25.7 60.7 25.4 60.9 25.2C60.9 25.2 60.8 25.1 60.7 25.1C60.5 25 60 24.7 59.7 24.6C59.6 24.9 59.4 25.2 59.2 25.4C58.9 25.6 58.5 25.7 58.1 25.7C57.7 25.7 57.3 25.6 57.1 25.4C57 25.4 57 25.3 57 25.3Z" fill="white"/>
<path d="M62.3 23.7998C61.7 25.3998 60.7 26.5998 60 27.1998C64.5 25.9998 65.3 28.2998 65.3 28.3998C65.3 28.4998 65.3 28.4998 65.4 28.3998C65.5 28.2998 67 26.6998 65.9 25.1998C65 23.9998 63 23.7998 62.3 23.7998ZM62.3 24.9998C62.5 24.7998 62.6 24.3998 62.6 24.3998C62.9 24.3998 63.5 24.4998 63.5 24.8998C63.1 24.7998 62.6 24.7998 62.3 24.9998Z" fill="white"/>
<path d="M28.5 24.8998C28.5 24.6998 28.5 24.4998 28.5 24.2998C28.1 24.2998 27.7 24.2998 27.4 24.2998C27.5 24.8998 27.8 25.3998 28.1 25.5998C28.3 25.3998 28.4 25.1998 28.5 24.8998Z" fill="white"/>
<path d="M33.6 22.7001C33.5 22.7001 33.5 22.7001 33.6 22.7001C33.5 22.7001 33.5 22.7001 33.5 22.7001C33.5 22.7001 33.5 22.7001 33.4 22.7001C33.3 22.7001 33.3 22.7001 33.2 22.7001C33.1 22.7001 33.1 22.7001 33 22.7001C32.9 22.7001 32.8 22.7001 32.7 22.7001C32.5 22.7001 32.4 22.7001 32.2 22.7001C31.3 22.7001 30.5 22.5001 29.7 22.3001C28.8 22.2001 28 22.0001 27.2 22.0001C27.1 22.0001 27.1 22.0001 27 22.0001C27 22.0001 27 22.0001 26.9 22.0001C26.7 22.0001 26.5 22.0001 26.4 22.0001C26 22.0001 25.7 22.1001 25.5 22.2001C25.4 22.3001 25.2 22.3001 25.1 22.4001C24.8 22.6001 24.6 22.7001 24.4 22.9001C24.5 23.4001 24.8 24.0001 25 24.4001C25.5 24.1001 26.8 23.5001 27.7 23.5001H27.9C28.5 23.5001 29 23.4001 31.5 23.8001C33.7 24.1001 35.3 23.4001 35.8 23.2001C36.1 23.0001 36.4 22.8001 36.6 22.6001C36.7 22.5001 36.8 22.4001 36.9 22.3001C37.1 22.0001 37.3 21.8001 37.5 21.6001C36.6 21.9001 35.4 22.5001 33.6 22.7001Z" fill="white"/>
<path d="M19.6 30.1998C19.9 30.4998 20.6 31.5998 22.2 30.6998C23.8 29.7998 24.6 29.2998 24.6 29.2998C24.6 29.2998 24.3 29.7998 24.5 30.3998C24.5 30.3998 24.5 30.3998 24.6 30.3998C24.8 29.9998 26.2 28.8998 27.9 28.7998C28 28.7998 28 28.7998 28.1 28.7998C28 28.6998 27.9 28.6998 27.8 28.5998C27.5 28.3998 27.2 28.1998 27 28.0998C26.8 27.9998 26.7 27.8998 26.5 27.7998C25.7 27.8998 24.3 28.4998 22.4 29.6998C20.6 30.6998 19.7 30.1998 19.6 30.1998Z" fill="white"/>
<path d="M26.4 24.6C26.2 24.7 25.6 25 25.4 25.1C25.3 25.1 25.3 25.2 25.2 25.2C25.4 25.5 25.5 25.7 25.7 25.9C26.5 26.1 27.3 26.2 28 26.2C28.4 26.2 28.8 26.2 29.2 26.1C29.3 26.1 29.3 26.1 29.4 26.1C29.5 26.1 29.5 26.1 29.6 26.1C30.6 25.9 31.2 25.2 31.4 24.7C31.3 24.7 31.1 24.7 31 24.7C30.4 24.6 29.9 24.5 29.5 24.5C29.5 24.6 29.4 24.8 29.4 24.9C29.3 25.1 29.2 25.2 29.1 25.3L29 25.4C28.7 25.6 28.4 25.7 28 25.7C27.6 25.7 27.2 25.6 26.9 25.4C26.6 25.2 26.5 24.9 26.4 24.6Z" fill="white"/>
<path d="M20.1 25.1998C19 26.6998 20.5 28.2998 20.6 28.3998C20.7 28.4998 20.7 28.3998 20.7 28.3998C20.7 28.2998 21.5 25.9998 26 27.1998C25.3 26.5998 24.3 25.3998 23.7 23.7998C23.1 23.7998 21 23.9998 20.1 25.1998ZM23.8 24.9998C23.5 24.7998 23 24.7998 22.6 24.8998C22.6 24.4998 23.2 24.3998 23.5 24.3998C23.5 24.3998 23.6 24.7998 23.8 24.9998Z" fill="white"/>
<path d="M37.9 25.1999C37.8 25.1999 37.6 25.1999 37.5 25.1999C36.5 25.1999 35.7 24.8999 34.9 24.3999C34.6 24.4999 34 24.5999 33.5 24.5999C33 24.5999 32.5 24.5999 32.3 24.5999C32.2 24.9999 31.9 25.6999 31.2 26.1999C30.5 26.7999 29.6 26.8999 28.8 26.8999C28.4 26.8999 28.1 26.8999 27.9 26.8999H27.8C27.6 26.8999 27.2 26.7999 26.8 26.7999C27.1 26.9999 27.3 27.0999 27.5 27.2999C27.7 27.3999 28 27.5999 28.3 27.7999C29.9 28.8999 31.1 30.4999 31.3 31.5999C31.4 31.9999 31.4 32.3999 31.4 32.3999C31.6 32.2999 31.8 31.8999 31.9 31.4999C32.1 31.9999 32.8 33.5999 32.5 35.1999C32.2 37.0999 31.7 37.9999 31.2 38.4999C31 38.6999 30.8 38.8999 30.7 38.9999C31.7 38.4999 33.4 37.3999 34.3 35.3999C34.8 34.2999 35 31.9999 35 31.9999V31.2999L35.6 31.5999C35.6 31.5999 36.5 32.0999 37.4 33.3999C37.7 33.8999 38 34.3999 38.2 34.8999C38.3 34.4999 38.4 34.0999 38.5 33.5999C38.6 32.3999 38.3 31.1999 38.3 31.1999L38.1 30.3999L38.9 30.6999C38.9 30.6999 39.7 30.9999 40.6 31.6999C41.2 32.0999 41.6 32.4999 41.9 32.8999C41.5 31.8999 41.1 30.8999 40.4 29.9999C38.3 26.7999 37 26.0999 37 26.0999L36.8 25.9999C36.8 25.9999 36.8 25.9999 36.9 25.9999C37.2 25.6999 37.6 25.3999 37.9 25.1999Z" fill="white"/>
</svg>
