<svg width="1830" height="2840" viewBox="0 0 1830 2840" fill="none" xmlns="http://www.w3.org/2000/svg">
<circle cx="821.5" cy="1744.5" r="20" stroke="url(#paint0_linear_102_17)"/>
<circle cx="821.875" cy="1744.87" r="36.9582" transform="rotate(97.2308 821.875 1744.87)" stroke="url(#paint1_linear_102_17)"/>
<g filter="url(#filter0_f_102_17)">
<circle cx="822" cy="1745" r="10" fill="#0B527A"/>
</g>
<g filter="url(#filter1_f_102_17)">
<circle cx="822" cy="1745" r="6" fill="white"/>
</g>
<path d="M1843 2590C833 2675 703.5 2356 703.5 2184C703.5 2054 746.827 1994.72 798.5 1875C920 1593.5 583 1637.01 755 1206.01C927 680.504 609.5 723.003 748.5 458.504C863.48 239.714 817.001 82.0123 885.501 3.5053" stroke="white" stroke-width="2" stroke-dasharray="4 4"/>
<defs>
<filter id="filter0_f_102_17" x="808" y="1731" width="28" height="28" filterUnits="userSpaceOnUse" color-interpolation-filters="sRGB">
<feFlood flood-opacity="0" result="BackgroundImageFix"/>
<feBlend mode="normal" in="SourceGraphic" in2="BackgroundImageFix" result="shape"/>
<feGaussianBlur stdDeviation="2" result="effect1_foregroundBlur_102_17"/>
</filter>
<filter id="filter1_f_102_17" x="812" y="1735" width="20" height="20" filterUnits="userSpaceOnUse" color-interpolation-filters="sRGB">
<feFlood flood-opacity="0" result="BackgroundImageFix"/>
<feBlend mode="normal" in="SourceGraphic" in2="BackgroundImageFix" result="shape"/>
<feGaussianBlur stdDeviation="2" result="effect1_foregroundBlur_102_17"/>
</filter>
<linearGradient id="paint0_linear_102_17" x1="803.092" y1="1720.65" x2="833.633" y2="1756.63" gradientUnits="userSpaceOnUse">
<stop stop-color="white"/>
<stop offset="1" stop-color="white" stop-opacity="0"/>
</linearGradient>
<linearGradient id="paint1_linear_102_17" x1="788.239" y1="1701.3" x2="844.044" y2="1767.04" gradientUnits="userSpaceOnUse">
<stop stop-color="white"/>
<stop offset="1" stop-color="white" stop-opacity="0"/>
</linearGradient>
</defs>
</svg>
